G04 #@! TF.FileFunction,Soldermask,Bot*
%FSLAX46Y46*%
G04 Gerber Fmt 4.6, Leading zero omitted, Abs format (unit mm)*
G04 Created by KiCad (PCBNEW 4.0.7-e2-6376~58~ubuntu16.04.1) date Sat Jul 28 00:22:21 2018*
%MOMM*%
%LPD*%
G01*
G04 APERTURE LIST*
%ADD10C,0.100000*%
%ADD11O,2.900000X5.400000*%
%ADD12O,2.650000X4.900000*%
%ADD13C,1.924000*%
%ADD14C,2.900000*%
%ADD15C,2.899360*%
%ADD16C,3.897580*%
%ADD17C,2.000000*%
%ADD18C,4.800000*%
%ADD19C,1.100000*%
G04 APERTURE END LIST*
D10*
D11*
X201580000Y-117094000D03*
D12*
X195580000Y-117094000D03*
D13*
X134112000Y-139446000D03*
X139192000Y-139446000D03*
X136652000Y-136906000D03*
X139192000Y-134366000D03*
X134112000Y-134366000D03*
X133858000Y-104394000D03*
X138938000Y-104394000D03*
X138938000Y-99314000D03*
X133858000Y-99314000D03*
X136398000Y-101854000D03*
D14*
X181182000Y-141986000D03*
X176182000Y-141986000D03*
X186182000Y-141986000D03*
X180340000Y-96520000D03*
X185340000Y-96520000D03*
X175340000Y-96520000D03*
D15*
X162267900Y-124749560D03*
X157264100Y-128381760D03*
X151091900Y-128381760D03*
X146088100Y-124749560D03*
X144178020Y-118872000D03*
X146088100Y-112994440D03*
X151091900Y-109362240D03*
X157264100Y-109362240D03*
X162267900Y-112994440D03*
D16*
X154178000Y-118872000D03*
D17*
X109910000Y-115705000D03*
X116910000Y-115705000D03*
X193858000Y-130302000D03*
X200858000Y-130302000D03*
D18*
X195580000Y-144780000D03*
D19*
X197230000Y-144780000D03*
X196746726Y-145946726D03*
X195580000Y-146430000D03*
X194413274Y-145946726D03*
X193930000Y-144780000D03*
X194413274Y-143613274D03*
X195580000Y-143130000D03*
X196746726Y-143613274D03*
D18*
X195580000Y-93980000D03*
D19*
X197230000Y-93980000D03*
X196746726Y-95146726D03*
X195580000Y-95630000D03*
X194413274Y-95146726D03*
X193930000Y-93980000D03*
X194413274Y-92813274D03*
X195580000Y-92330000D03*
X196746726Y-92813274D03*
D18*
X111760000Y-144780000D03*
D19*
X113410000Y-144780000D03*
X112926726Y-145946726D03*
X111760000Y-146430000D03*
X110593274Y-145946726D03*
X110110000Y-144780000D03*
X110593274Y-143613274D03*
X111760000Y-143130000D03*
X112926726Y-143613274D03*
D18*
X111760000Y-93980000D03*
D19*
X113410000Y-93980000D03*
X112926726Y-95146726D03*
X111760000Y-95630000D03*
X110593274Y-95146726D03*
X110110000Y-93980000D03*
X110593274Y-92813274D03*
X111760000Y-92330000D03*
X112926726Y-92813274D03*
M02*
