M48
INCH,TZ
T1C0.016
T2C0.018
T3C0.030
T4C0.030
T5C0.039
T6C0.047
T7C0.059
T8C0.087
%
G90
G05
T1
X4.3Y-4.8
X4.335Y-3.7
X4.335Y-5.7
X4.3541Y-3.6541
X4.3541Y-3.7459
X4.3541Y-5.6541
X4.3541Y-5.7459
X4.4Y-3.635
X4.4Y-3.765
X4.4Y-5.635
X4.4Y-5.765
X4.4459Y-3.6541
X4.4459Y-3.7459
X4.4459Y-5.6541
X4.4459Y-5.7459
X4.465Y-3.7
X4.465Y-5.7
X4.7Y-5.5
X5.87Y-3.92
X5.94Y-3.99
X6.61Y-4.11
X6.84Y-4.01
X6.97Y-3.88
X7.29Y-3.93
X7.635Y-3.7
X7.635Y-5.7
X7.6541Y-3.6541
X7.6541Y-3.7459
X7.6541Y-5.6541
X7.6541Y-5.7459
X7.7Y-3.635
X7.7Y-3.765
X7.7Y-5.635
X7.7Y-5.765
X7.7459Y-3.6541
X7.7459Y-3.7459
X7.7459Y-5.6541
X7.7459Y-5.7459
X7.765Y-3.7
X7.765Y-5.7
T2
X4.62Y-4.16
X4.62Y-5.15
X4.77Y-3.84
X5.15Y-4.55
X5.18Y-4.9
X5.67Y-4.2485
X5.69Y-4.05
X5.7Y-4.37
X5.76Y-3.86
X5.94Y-5.54
X6.Y-5.31
X6.03Y-3.86
X6.03Y-5.53
X6.27Y-3.86
X6.3Y-5.28
X6.84Y-5.44
X6.94Y-5.43
X7.24Y-5.19
X7.28Y-4.17
X7.3727Y-5.1173
X7.4Y-4.15
X7.4173Y-5.0727
X7.5177Y-4.9823
X7.52Y-5.17
X7.5623Y-4.9377
T3
X5.75Y-4.
X5.76Y-5.4
X6.53Y-5.44
X6.83Y-5.5
X6.85Y-5.3
X7.03Y-5.48
T4
X5.27Y-3.91
X5.27Y-4.11
X5.28Y-5.29
X5.28Y-5.49
X5.37Y-4.01
X5.38Y-5.39
X5.47Y-3.91
X5.47Y-4.11
X5.48Y-5.29
X5.48Y-5.49
T5
X7.7Y-4.61
X7.9362Y-4.61
T6
X6.9031Y-3.8
X6.9363Y-5.59
X7.1Y-3.8
X7.1331Y-5.59
X7.2969Y-3.8
X7.33Y-5.59
T7
X5.6763Y-4.68
X5.7515Y-4.4486
X5.7515Y-4.9114
X5.9485Y-4.3056
X5.9485Y-5.0544
X6.1915Y-4.3056
X6.1915Y-5.0544
X6.3885Y-4.4486
X6.3885Y-4.9114
T8
X4.4Y-3.7
X4.4Y-5.7
X7.7Y-3.7
X7.7Y-5.7
T0
M30
