G04 #@! TF.FileFunction,Soldermask,Top*
%FSLAX46Y46*%
G04 Gerber Fmt 4.6, Leading zero omitted, Abs format (unit mm)*
G04 Created by KiCad (PCBNEW 4.0.7-e2-6376~58~ubuntu16.04.1) date Sat Jul 28 00:22:21 2018*
%MOMM*%
%LPD*%
G01*
G04 APERTURE LIST*
%ADD10C,0.100000*%
%ADD11O,2.900000X5.400000*%
%ADD12O,2.650000X4.900000*%
%ADD13R,5.000000X1.500000*%
%ADD14R,9.800000X11.200000*%
%ADD15C,1.924000*%
%ADD16R,4.400000X2.900000*%
%ADD17R,2.900000X4.400000*%
%ADD18R,1.900000X1.700000*%
%ADD19R,1.600000X1.300000*%
%ADD20R,2.400000X2.100000*%
%ADD21R,1.700000X1.900000*%
%ADD22C,2.900000*%
%ADD23C,2.899360*%
%ADD24C,3.897580*%
%ADD25R,2.400000X4.200000*%
%ADD26R,2.400000X1.900000*%
%ADD27R,1.900000X1.650000*%
%ADD28R,2.800000X2.950000*%
%ADD29R,3.300000X2.950000*%
%ADD30C,2.000000*%
%ADD31C,4.800000*%
%ADD32C,1.100000*%
G04 APERTURE END LIST*
D10*
D11*
X201580000Y-117094000D03*
D12*
X195580000Y-117094000D03*
D13*
X146237000Y-139446000D03*
X146237000Y-134366000D03*
D14*
X137087000Y-136906000D03*
D15*
X134112000Y-139446000D03*
X139192000Y-139446000D03*
X136652000Y-136906000D03*
X139192000Y-134366000D03*
X134112000Y-134366000D03*
D13*
X145983000Y-104394000D03*
X145983000Y-99314000D03*
D14*
X136833000Y-101854000D03*
D15*
X133858000Y-104394000D03*
X138938000Y-104394000D03*
X138938000Y-99314000D03*
X133858000Y-99314000D03*
X136398000Y-101854000D03*
D16*
X121156000Y-130810000D03*
X127256000Y-130810000D03*
D17*
X175768000Y-131000000D03*
X175768000Y-123000000D03*
D16*
X120648000Y-105410000D03*
X126748000Y-105410000D03*
D17*
X175768000Y-104712000D03*
X175768000Y-112712000D03*
D16*
X199580000Y-104902000D03*
X191580000Y-104902000D03*
D18*
X136224000Y-124206000D03*
X133524000Y-124206000D03*
D19*
X125306000Y-139192000D03*
X123106000Y-139192000D03*
D20*
X157194000Y-136906000D03*
X153194000Y-136906000D03*
D21*
X183642000Y-129874000D03*
X183642000Y-127174000D03*
D18*
X135970000Y-115316000D03*
X133270000Y-115316000D03*
D19*
X124798000Y-97028000D03*
X122598000Y-97028000D03*
D20*
X156940000Y-99822000D03*
X152940000Y-99822000D03*
D21*
X184404000Y-107616000D03*
X184404000Y-110316000D03*
D22*
X181182000Y-141986000D03*
X176182000Y-141986000D03*
X186182000Y-141986000D03*
X180340000Y-96520000D03*
X185340000Y-96520000D03*
X175340000Y-96520000D03*
D23*
X162267900Y-124749560D03*
X157264100Y-128381760D03*
X151091900Y-128381760D03*
X146088100Y-124749560D03*
X144178020Y-118872000D03*
X146088100Y-112994440D03*
X151091900Y-109362240D03*
X157264100Y-109362240D03*
X162267900Y-112994440D03*
D24*
X154178000Y-118872000D03*
D25*
X168504000Y-136906000D03*
D26*
X162204000Y-136906000D03*
X162204000Y-139206000D03*
X162204000Y-134606000D03*
D25*
X167996000Y-100076000D03*
D26*
X161696000Y-100076000D03*
X161696000Y-102376000D03*
X161696000Y-97776000D03*
D27*
X136124000Y-121666000D03*
X133624000Y-121666000D03*
X135870000Y-113030000D03*
X133370000Y-113030000D03*
D28*
X108810000Y-119380000D03*
D29*
X118110000Y-119380000D03*
D28*
X110710000Y-112030000D03*
D30*
X109910000Y-115705000D03*
X116910000Y-115705000D03*
D28*
X192758000Y-133977000D03*
D29*
X202058000Y-133977000D03*
D28*
X194658000Y-126627000D03*
D30*
X193858000Y-130302000D03*
X200858000Y-130302000D03*
D31*
X195580000Y-144780000D03*
D32*
X197230000Y-144780000D03*
X196746726Y-145946726D03*
X195580000Y-146430000D03*
X194413274Y-145946726D03*
X193930000Y-144780000D03*
X194413274Y-143613274D03*
X195580000Y-143130000D03*
X196746726Y-143613274D03*
D31*
X195580000Y-93980000D03*
D32*
X197230000Y-93980000D03*
X196746726Y-95146726D03*
X195580000Y-95630000D03*
X194413274Y-95146726D03*
X193930000Y-93980000D03*
X194413274Y-92813274D03*
X195580000Y-92330000D03*
X196746726Y-92813274D03*
D31*
X111760000Y-144780000D03*
D32*
X113410000Y-144780000D03*
X112926726Y-145946726D03*
X111760000Y-146430000D03*
X110593274Y-145946726D03*
X110110000Y-144780000D03*
X110593274Y-143613274D03*
X111760000Y-143130000D03*
X112926726Y-143613274D03*
D31*
X111760000Y-93980000D03*
D32*
X113410000Y-93980000D03*
X112926726Y-95146726D03*
X111760000Y-95630000D03*
X110593274Y-95146726D03*
X110110000Y-93980000D03*
X110593274Y-92813274D03*
X111760000Y-92330000D03*
X112926726Y-92813274D03*
M02*
