G04 #@! TF.FileFunction,Copper,L1,Top,Signal*
%FSLAX46Y46*%
G04 Gerber Fmt 4.6, Leading zero omitted, Abs format (unit mm)*
G04 Created by KiCad (PCBNEW 4.0.7-e2-6376~58~ubuntu16.04.1) date Sat Jul 28 00:22:21 2018*
%MOMM*%
%LPD*%
G01*
G04 APERTURE LIST*
%ADD10C,0.100000*%
%ADD11O,2.500000X5.000000*%
%ADD12O,2.250000X4.500000*%
%ADD13R,4.600000X1.100000*%
%ADD14R,9.400000X10.800000*%
%ADD15R,4.550000X5.250000*%
%ADD16C,1.524000*%
%ADD17R,4.000000X2.500000*%
%ADD18R,2.500000X4.000000*%
%ADD19R,1.500000X1.300000*%
%ADD20R,1.200000X0.900000*%
%ADD21R,2.000000X1.700000*%
%ADD22R,1.300000X1.500000*%
%ADD23C,2.500000*%
%ADD24C,2.499360*%
%ADD25R,2.000000X3.800000*%
%ADD26R,2.000000X1.500000*%
%ADD27R,1.500000X1.250000*%
%ADD28R,2.400000X2.550000*%
%ADD29R,2.900000X2.550000*%
%ADD30C,4.400000*%
%ADD31C,0.700000*%
%ADD32C,0.600000*%
%ADD33C,0.750000*%
%ADD34C,1.500000*%
%ADD35C,0.450000*%
%ADD36C,0.250000*%
G04 APERTURE END LIST*
D10*
D11*
X201580000Y-117094000D03*
D12*
X195580000Y-117094000D03*
D13*
X146237000Y-139446000D03*
X146237000Y-134366000D03*
D14*
X137087000Y-136906000D03*
D15*
X134662000Y-134131000D03*
X139512000Y-139681000D03*
X134662000Y-139681000D03*
X139512000Y-134131000D03*
D16*
X134112000Y-139446000D03*
X139192000Y-139446000D03*
X136652000Y-136906000D03*
X139192000Y-134366000D03*
X134112000Y-134366000D03*
D13*
X145983000Y-104394000D03*
X145983000Y-99314000D03*
D14*
X136833000Y-101854000D03*
D15*
X134408000Y-99079000D03*
X139258000Y-104629000D03*
X134408000Y-104629000D03*
X139258000Y-99079000D03*
D16*
X133858000Y-104394000D03*
X138938000Y-104394000D03*
X138938000Y-99314000D03*
X133858000Y-99314000D03*
X136398000Y-101854000D03*
D17*
X121156000Y-130810000D03*
X127256000Y-130810000D03*
D18*
X175768000Y-131000000D03*
X175768000Y-123000000D03*
D17*
X120648000Y-105410000D03*
X126748000Y-105410000D03*
D18*
X175768000Y-104712000D03*
X175768000Y-112712000D03*
D17*
X199580000Y-104902000D03*
X191580000Y-104902000D03*
D19*
X136224000Y-124206000D03*
X133524000Y-124206000D03*
D20*
X125306000Y-139192000D03*
X123106000Y-139192000D03*
D21*
X157194000Y-136906000D03*
X153194000Y-136906000D03*
D22*
X183642000Y-129874000D03*
X183642000Y-127174000D03*
D19*
X135970000Y-115316000D03*
X133270000Y-115316000D03*
D20*
X124798000Y-97028000D03*
X122598000Y-97028000D03*
D21*
X156940000Y-99822000D03*
X152940000Y-99822000D03*
D22*
X184404000Y-107616000D03*
X184404000Y-110316000D03*
D23*
X181182000Y-141986000D03*
X176182000Y-141986000D03*
X186182000Y-141986000D03*
X180340000Y-96520000D03*
X185340000Y-96520000D03*
X175340000Y-96520000D03*
D24*
X162267900Y-124749560D03*
X157264100Y-128381760D03*
X151091900Y-128381760D03*
X146088100Y-124749560D03*
X144178020Y-118872000D03*
X146088100Y-112994440D03*
X151091900Y-109362240D03*
X157264100Y-109362240D03*
X162267900Y-112994440D03*
D25*
X168504000Y-136906000D03*
D26*
X162204000Y-136906000D03*
X162204000Y-139206000D03*
X162204000Y-134606000D03*
D25*
X167996000Y-100076000D03*
D26*
X161696000Y-100076000D03*
X161696000Y-102376000D03*
X161696000Y-97776000D03*
D27*
X136124000Y-121666000D03*
X133624000Y-121666000D03*
X135870000Y-113030000D03*
X133370000Y-113030000D03*
D28*
X108810000Y-119380000D03*
D29*
X118110000Y-119380000D03*
D28*
X110710000Y-112030000D03*
X192758000Y-133977000D03*
D29*
X202058000Y-133977000D03*
D28*
X194658000Y-126627000D03*
D30*
X195580000Y-144780000D03*
D31*
X197230000Y-144780000D03*
X196746726Y-145946726D03*
X195580000Y-146430000D03*
X194413274Y-145946726D03*
X193930000Y-144780000D03*
X194413274Y-143613274D03*
X195580000Y-143130000D03*
X196746726Y-143613274D03*
D30*
X195580000Y-93980000D03*
D31*
X197230000Y-93980000D03*
X196746726Y-95146726D03*
X195580000Y-95630000D03*
X194413274Y-95146726D03*
X193930000Y-93980000D03*
X194413274Y-92813274D03*
X195580000Y-92330000D03*
X196746726Y-92813274D03*
D30*
X111760000Y-144780000D03*
D31*
X113410000Y-144780000D03*
X112926726Y-145946726D03*
X111760000Y-146430000D03*
X110593274Y-145946726D03*
X110110000Y-144780000D03*
X110593274Y-143613274D03*
X111760000Y-143130000D03*
X112926726Y-143613274D03*
D30*
X111760000Y-93980000D03*
D31*
X113410000Y-93980000D03*
X112926726Y-95146726D03*
X111760000Y-95630000D03*
X110593274Y-95146726D03*
X110110000Y-93980000D03*
X110593274Y-92813274D03*
X111760000Y-92330000D03*
X112926726Y-92813274D03*
D32*
X109220000Y-121920000D03*
X119380000Y-139700000D03*
D33*
X152400000Y-134874000D03*
X160020000Y-134112000D03*
X183896000Y-131826000D03*
X191008000Y-131318000D03*
X184912000Y-105918000D03*
X187960000Y-105410000D03*
X159258000Y-98044000D03*
X153162000Y-98044000D03*
X130810000Y-115570000D03*
X131572000Y-124460000D03*
X121158000Y-97536000D03*
X117348000Y-105664000D03*
X117348000Y-130810000D03*
D34*
X173990000Y-134620000D03*
X165862000Y-138176000D03*
D32*
X173736000Y-101854000D03*
X167894000Y-104394000D03*
X150876000Y-101346000D03*
X149098000Y-99568000D03*
X177038000Y-98552000D03*
X185166000Y-99822000D03*
D33*
X144780000Y-110998000D03*
X144018000Y-107912000D03*
X150876000Y-140716000D03*
X153162000Y-140462000D03*
X173736000Y-138176000D03*
X176276000Y-137922000D03*
X187267314Y-129978686D03*
X188398686Y-128847314D03*
X190950314Y-126549686D03*
X192081686Y-125418314D03*
X144526000Y-102870000D03*
X146304000Y-98044000D03*
D34*
X146304000Y-137160000D03*
X173482000Y-139700000D03*
X178562000Y-139192000D03*
X146050000Y-101600000D03*
D35*
X140208000Y-124206000D02*
X138664000Y-124206000D01*
X138664000Y-124206000D02*
X136124000Y-121666000D01*
X136224000Y-124206000D02*
X140208000Y-124206000D01*
X144383760Y-128381760D02*
X151091900Y-128381760D01*
X140208000Y-124206000D02*
X144383760Y-128381760D01*
X136224000Y-124206000D02*
X136224000Y-121766000D01*
X136224000Y-121766000D02*
X136124000Y-121666000D01*
X133624000Y-121666000D02*
X129794000Y-121666000D01*
X129794000Y-121666000D02*
X127508000Y-119380000D01*
X127508000Y-119380000D02*
X118110000Y-119380000D01*
X191580000Y-111570000D02*
X191580000Y-104902000D01*
X191580000Y-111570000D02*
X191580000Y-111969000D01*
X191580000Y-111969000D02*
X195580000Y-115969000D01*
X195580000Y-115969000D02*
X195580000Y-117094000D01*
X108810000Y-119380000D02*
X108810000Y-121510000D01*
X108810000Y-121510000D02*
X109220000Y-121920000D01*
D36*
X196692000Y-117094000D02*
X196692000Y-116682000D01*
X123106000Y-139192000D02*
X119888000Y-139192000D01*
X119888000Y-139192000D02*
X119380000Y-139700000D01*
D35*
X153194000Y-136906000D02*
X153194000Y-135668000D01*
X153194000Y-135668000D02*
X152400000Y-134874000D01*
X162204000Y-134606000D02*
X160514000Y-134606000D01*
X160514000Y-134606000D02*
X160020000Y-134112000D01*
X183642000Y-129874000D02*
X183642000Y-131572000D01*
X183642000Y-131572000D02*
X183896000Y-131826000D01*
X192758000Y-133977000D02*
X192758000Y-133068000D01*
X192758000Y-133068000D02*
X191008000Y-131318000D01*
X184404000Y-107616000D02*
X184404000Y-106426000D01*
X184404000Y-106426000D02*
X184912000Y-105918000D01*
X191580000Y-104902000D02*
X188468000Y-104902000D01*
X188468000Y-104902000D02*
X187960000Y-105410000D01*
X161696000Y-97776000D02*
X159526000Y-97776000D01*
X159526000Y-97776000D02*
X159258000Y-98044000D01*
X152940000Y-99822000D02*
X152940000Y-98266000D01*
X152940000Y-98266000D02*
X153162000Y-98044000D01*
X133270000Y-115316000D02*
X131064000Y-115316000D01*
X131064000Y-115316000D02*
X130810000Y-115570000D01*
X133524000Y-124206000D02*
X131826000Y-124206000D01*
X131826000Y-124206000D02*
X131572000Y-124460000D01*
X122598000Y-97028000D02*
X121666000Y-97028000D01*
X121666000Y-97028000D02*
X121158000Y-97536000D01*
X120648000Y-105410000D02*
X117602000Y-105410000D01*
X117602000Y-105410000D02*
X117348000Y-105664000D01*
X121156000Y-130810000D02*
X117348000Y-130810000D01*
X127256000Y-130810000D02*
X130302000Y-130810000D01*
X154835860Y-130810000D02*
X157264100Y-128381760D01*
X148082000Y-130810000D02*
X154835860Y-130810000D01*
X146558000Y-129286000D02*
X148082000Y-130810000D01*
X131826000Y-129286000D02*
X146558000Y-129286000D01*
X130302000Y-130810000D02*
X131826000Y-129286000D01*
X125306000Y-139192000D02*
X125306000Y-138854000D01*
X125306000Y-138854000D02*
X127256000Y-136904000D01*
X127256000Y-136904000D02*
X127256000Y-130810000D01*
X162204000Y-139206000D02*
X164832000Y-139206000D01*
X173990000Y-134620000D02*
X175768000Y-132842000D01*
X164832000Y-139206000D02*
X165862000Y-138176000D01*
X175768000Y-132842000D02*
X175768000Y-131000000D01*
X146237000Y-134366000D02*
X147320000Y-134366000D01*
X147320000Y-134366000D02*
X152160000Y-139206000D01*
X152160000Y-139206000D02*
X162204000Y-139206000D01*
X183642000Y-127174000D02*
X185594000Y-127174000D01*
X197859000Y-138176000D02*
X202058000Y-133977000D01*
X191770000Y-138176000D02*
X197859000Y-138176000D01*
X188722000Y-135128000D02*
X191770000Y-138176000D01*
X188722000Y-130302000D02*
X188722000Y-135128000D01*
X185594000Y-127174000D02*
X188722000Y-130302000D01*
X175768000Y-123000000D02*
X183324000Y-123000000D01*
X183642000Y-123318000D02*
X183642000Y-127174000D01*
X183324000Y-123000000D02*
X183642000Y-123318000D01*
X135970000Y-115316000D02*
X135970000Y-115236000D01*
X135970000Y-115236000D02*
X137922000Y-113284000D01*
X135870000Y-113030000D02*
X141224000Y-113030000D01*
X154866340Y-111760000D02*
X157264100Y-109362240D01*
X149606000Y-111760000D02*
X154866340Y-111760000D01*
X147828000Y-109982000D02*
X149606000Y-111760000D01*
X144272000Y-109982000D02*
X147828000Y-109982000D01*
X141224000Y-113030000D02*
X144272000Y-109982000D01*
X135970000Y-115316000D02*
X135970000Y-113130000D01*
X135970000Y-113130000D02*
X135870000Y-113030000D01*
X110710000Y-112030000D02*
X132370000Y-112030000D01*
X132370000Y-112030000D02*
X133370000Y-113030000D01*
X126748000Y-105410000D02*
X129032000Y-105410000D01*
X132334000Y-108712000D02*
X150441660Y-108712000D01*
X129032000Y-105410000D02*
X132334000Y-108712000D01*
X150441660Y-108712000D02*
X151091900Y-109362240D01*
X124798000Y-97028000D02*
X125476000Y-97028000D01*
X126748000Y-98300000D02*
X126748000Y-105410000D01*
X125476000Y-97028000D02*
X126748000Y-98300000D01*
D36*
X126748000Y-105410000D02*
X127508000Y-105410000D01*
D35*
X151892000Y-102376000D02*
X152160000Y-102376000D01*
X173736000Y-101854000D02*
X175768000Y-103886000D01*
X154178000Y-104394000D02*
X167894000Y-104394000D01*
X152160000Y-102376000D02*
X154178000Y-104394000D01*
X175768000Y-103886000D02*
X175768000Y-104712000D01*
X145983000Y-99314000D02*
X148844000Y-99314000D01*
X151906000Y-102376000D02*
X151892000Y-102376000D01*
X151892000Y-102376000D02*
X161696000Y-102376000D01*
X150876000Y-101346000D02*
X151906000Y-102376000D01*
X148844000Y-99314000D02*
X149098000Y-99568000D01*
X184404000Y-110316000D02*
X184404000Y-118872000D01*
X192159000Y-126627000D02*
X194658000Y-126627000D01*
X184404000Y-118872000D02*
X192159000Y-126627000D01*
X194445000Y-126627000D02*
X194658000Y-126627000D01*
X175768000Y-112712000D02*
X182008000Y-112712000D01*
X182008000Y-112712000D02*
X184404000Y-110316000D01*
X199390000Y-119380000D02*
X199390000Y-118745000D01*
X199390000Y-118745000D02*
X199390000Y-114808000D01*
X201580000Y-117094000D02*
X199880000Y-117094000D01*
X199880000Y-117094000D02*
X199390000Y-117584000D01*
X199390000Y-117584000D02*
X199390000Y-118745000D01*
X202692000Y-111506000D02*
X201803000Y-112395000D01*
X201803000Y-112395000D02*
X201580000Y-112618000D01*
X193040000Y-124460000D02*
X194310000Y-124460000D01*
X194310000Y-124460000D02*
X199390000Y-119380000D01*
X192081686Y-125418314D02*
X193040000Y-124460000D01*
X199390000Y-114808000D02*
X201803000Y-112395000D01*
X201580000Y-112618000D02*
X201580000Y-117094000D01*
X175340000Y-96520000D02*
X173572234Y-96520000D01*
X173572234Y-96520000D02*
X172556234Y-95504000D01*
X172556234Y-95504000D02*
X148844000Y-95504000D01*
X177038000Y-98552000D02*
X177038000Y-98218000D01*
X177038000Y-98218000D02*
X175340000Y-96520000D01*
X198628000Y-98806000D02*
X186182000Y-98806000D01*
X186182000Y-98806000D02*
X185166000Y-99822000D01*
X144780000Y-110998000D02*
X144780000Y-111686340D01*
X144780000Y-111686340D02*
X146088100Y-112994440D01*
X145983000Y-104394000D02*
X145983000Y-105947000D01*
X145983000Y-105947000D02*
X144018000Y-107912000D01*
X150876000Y-140716000D02*
X149606000Y-139446000D01*
X149606000Y-139446000D02*
X146237000Y-139446000D01*
X154155670Y-141201670D02*
X153416000Y-140462000D01*
X153416000Y-140462000D02*
X153162000Y-140462000D01*
X170180000Y-141201670D02*
X154155670Y-141201670D01*
X173736000Y-138176000D02*
X173205670Y-138176000D01*
X173205670Y-138176000D02*
X170180000Y-141201670D01*
X183642000Y-141986000D02*
X179672999Y-138016999D01*
X179672999Y-138016999D02*
X176370999Y-138016999D01*
X176370999Y-138016999D02*
X176276000Y-137922000D01*
X186182000Y-141986000D02*
X183642000Y-141986000D01*
X187267314Y-129978686D02*
X186182000Y-131064000D01*
X186182000Y-131064000D02*
X186182000Y-141986000D01*
X190950314Y-126549686D02*
X190696314Y-126549686D01*
X190696314Y-126549686D02*
X188398686Y-128847314D01*
X202692000Y-108014000D02*
X202692000Y-111506000D01*
X144526000Y-102870000D02*
X144526000Y-102937000D01*
X144526000Y-102937000D02*
X145983000Y-104394000D01*
X148844000Y-95504000D02*
X146304000Y-98044000D01*
X199580000Y-104902000D02*
X199580000Y-99758000D01*
X199580000Y-99758000D02*
X198628000Y-98806000D01*
X175006000Y-96012000D02*
X175006000Y-95504000D01*
X202692000Y-108014000D02*
X199580000Y-104902000D01*
D36*
X137341000Y-137160000D02*
X146304000Y-137160000D01*
D35*
X148590000Y-137160000D02*
X146304000Y-137160000D01*
X153924000Y-142494000D02*
X148590000Y-137160000D01*
X170688000Y-142494000D02*
X153924000Y-142494000D01*
X173482000Y-139700000D02*
X170688000Y-142494000D01*
X178562000Y-139192000D02*
X181182000Y-141812000D01*
D36*
X137341000Y-137160000D02*
X137087000Y-136906000D01*
D35*
X137341000Y-137160000D02*
X137087000Y-136906000D01*
X181182000Y-141986000D02*
X181182000Y-141812000D01*
X172974000Y-99314000D02*
X177546000Y-99314000D01*
X177546000Y-99314000D02*
X180340000Y-96520000D01*
D36*
X137087000Y-101600000D02*
X146050000Y-101600000D01*
D35*
X148590000Y-101600000D02*
X146050000Y-101600000D01*
X150114000Y-100076000D02*
X148590000Y-101600000D01*
X150114000Y-98806000D02*
X150114000Y-100076000D01*
X152654000Y-96266000D02*
X150114000Y-98806000D01*
X169926000Y-96266000D02*
X152654000Y-96266000D01*
X172974000Y-99314000D02*
X169926000Y-96266000D01*
D36*
X137087000Y-101600000D02*
X136833000Y-101854000D01*
D35*
X137087000Y-101600000D02*
X136833000Y-101854000D01*
X157194000Y-136906000D02*
X162204000Y-136906000D01*
X156940000Y-99822000D02*
X161442000Y-99822000D01*
X161442000Y-99822000D02*
X161696000Y-100076000D01*
X146088100Y-124749560D02*
X156499560Y-124749560D01*
X176182000Y-139098000D02*
X176182000Y-141986000D01*
X169164000Y-132080000D02*
X176182000Y-139098000D01*
X163830000Y-132080000D02*
X169164000Y-132080000D01*
X156499560Y-124749560D02*
X163830000Y-132080000D01*
X183642000Y-100076000D02*
X185340000Y-98378000D01*
X185340000Y-98378000D02*
X185340000Y-96520000D01*
X172212000Y-100076000D02*
X183642000Y-100076000D01*
X162267900Y-112994440D02*
X162267900Y-111798100D01*
X162267900Y-111798100D02*
X170434000Y-103632000D01*
X170434000Y-103632000D02*
X170434000Y-101854000D01*
X170434000Y-101854000D02*
X172212000Y-100076000D01*
M02*
