G04 #@! TF.FileFunction,Legend,Top*
%FSLAX46Y46*%
G04 Gerber Fmt 4.6, Leading zero omitted, Abs format (unit mm)*
G04 Created by KiCad (PCBNEW 4.0.7-e2-6376~58~ubuntu16.04.1) date Sat Jul 28 00:22:21 2018*
%MOMM*%
%LPD*%
G01*
G04 APERTURE LIST*
%ADD10C,0.100000*%
%ADD11C,0.300000*%
%ADD12C,0.127000*%
%ADD13C,0.400000*%
%ADD14C,0.120000*%
%ADD15C,0.378460*%
%ADD16C,0.050000*%
%ADD17C,0.150000*%
%ADD18C,0.304800*%
G04 APERTURE END LIST*
D10*
D11*
X114310287Y-149903571D02*
X114310287Y-148403571D01*
X114667430Y-148403571D01*
X114881715Y-148475000D01*
X115024573Y-148617857D01*
X115096001Y-148760714D01*
X115167430Y-149046429D01*
X115167430Y-149260714D01*
X115096001Y-149546429D01*
X115024573Y-149689286D01*
X114881715Y-149832143D01*
X114667430Y-149903571D01*
X114310287Y-149903571D01*
X116381715Y-149832143D02*
X116238858Y-149903571D01*
X115953144Y-149903571D01*
X115810287Y-149832143D01*
X115738858Y-149689286D01*
X115738858Y-149117857D01*
X115810287Y-148975000D01*
X115953144Y-148903571D01*
X116238858Y-148903571D01*
X116381715Y-148975000D01*
X116453144Y-149117857D01*
X116453144Y-149260714D01*
X115738858Y-149403571D01*
X117024572Y-149832143D02*
X117167429Y-149903571D01*
X117453144Y-149903571D01*
X117596001Y-149832143D01*
X117667429Y-149689286D01*
X117667429Y-149617857D01*
X117596001Y-149475000D01*
X117453144Y-149403571D01*
X117238858Y-149403571D01*
X117096001Y-149332143D01*
X117024572Y-149189286D01*
X117024572Y-149117857D01*
X117096001Y-148975000D01*
X117238858Y-148903571D01*
X117453144Y-148903571D01*
X117596001Y-148975000D01*
X118310287Y-149903571D02*
X118310287Y-148903571D01*
X118310287Y-148403571D02*
X118238858Y-148475000D01*
X118310287Y-148546429D01*
X118381715Y-148475000D01*
X118310287Y-148403571D01*
X118310287Y-148546429D01*
X119667430Y-148903571D02*
X119667430Y-150117857D01*
X119596001Y-150260714D01*
X119524573Y-150332143D01*
X119381716Y-150403571D01*
X119167430Y-150403571D01*
X119024573Y-150332143D01*
X119667430Y-149832143D02*
X119524573Y-149903571D01*
X119238859Y-149903571D01*
X119096001Y-149832143D01*
X119024573Y-149760714D01*
X118953144Y-149617857D01*
X118953144Y-149189286D01*
X119024573Y-149046429D01*
X119096001Y-148975000D01*
X119238859Y-148903571D01*
X119524573Y-148903571D01*
X119667430Y-148975000D01*
X120381716Y-148903571D02*
X120381716Y-149903571D01*
X120381716Y-149046429D02*
X120453144Y-148975000D01*
X120596002Y-148903571D01*
X120810287Y-148903571D01*
X120953144Y-148975000D01*
X121024573Y-149117857D01*
X121024573Y-149903571D01*
X122310287Y-149832143D02*
X122167430Y-149903571D01*
X121881716Y-149903571D01*
X121738859Y-149832143D01*
X121667430Y-149689286D01*
X121667430Y-149117857D01*
X121738859Y-148975000D01*
X121881716Y-148903571D01*
X122167430Y-148903571D01*
X122310287Y-148975000D01*
X122381716Y-149117857D01*
X122381716Y-149260714D01*
X121667430Y-149403571D01*
X123667430Y-149903571D02*
X123667430Y-148403571D01*
X123667430Y-149832143D02*
X123524573Y-149903571D01*
X123238859Y-149903571D01*
X123096001Y-149832143D01*
X123024573Y-149760714D01*
X122953144Y-149617857D01*
X122953144Y-149189286D01*
X123024573Y-149046429D01*
X123096001Y-148975000D01*
X123238859Y-148903571D01*
X123524573Y-148903571D01*
X123667430Y-148975000D01*
X126024573Y-149117857D02*
X126238859Y-149189286D01*
X126310287Y-149260714D01*
X126381716Y-149403571D01*
X126381716Y-149617857D01*
X126310287Y-149760714D01*
X126238859Y-149832143D01*
X126096001Y-149903571D01*
X125524573Y-149903571D01*
X125524573Y-148403571D01*
X126024573Y-148403571D01*
X126167430Y-148475000D01*
X126238859Y-148546429D01*
X126310287Y-148689286D01*
X126310287Y-148832143D01*
X126238859Y-148975000D01*
X126167430Y-149046429D01*
X126024573Y-149117857D01*
X125524573Y-149117857D01*
X126881716Y-148903571D02*
X127238859Y-149903571D01*
X127596001Y-148903571D02*
X127238859Y-149903571D01*
X127096001Y-150260714D01*
X127024573Y-150332143D01*
X126881716Y-150403571D01*
X128167430Y-149760714D02*
X128238858Y-149832143D01*
X128167430Y-149903571D01*
X128096001Y-149832143D01*
X128167430Y-149760714D01*
X128167430Y-149903571D01*
X128167430Y-148975000D02*
X128238858Y-149046429D01*
X128167430Y-149117857D01*
X128096001Y-149046429D01*
X128167430Y-148975000D01*
X128167430Y-149117857D01*
X130524573Y-149117857D02*
X130024573Y-149117857D01*
X130024573Y-149903571D02*
X130024573Y-148403571D01*
X130738859Y-148403571D01*
X131310287Y-149903571D02*
X131310287Y-148903571D01*
X131310287Y-149189286D02*
X131381715Y-149046429D01*
X131453144Y-148975000D01*
X131596001Y-148903571D01*
X131738858Y-148903571D01*
X132881715Y-149903571D02*
X132881715Y-149117857D01*
X132810286Y-148975000D01*
X132667429Y-148903571D01*
X132381715Y-148903571D01*
X132238858Y-148975000D01*
X132881715Y-149832143D02*
X132738858Y-149903571D01*
X132381715Y-149903571D01*
X132238858Y-149832143D01*
X132167429Y-149689286D01*
X132167429Y-149546429D01*
X132238858Y-149403571D01*
X132381715Y-149332143D01*
X132738858Y-149332143D01*
X132881715Y-149260714D01*
X133596001Y-148903571D02*
X133596001Y-149903571D01*
X133596001Y-149046429D02*
X133667429Y-148975000D01*
X133810287Y-148903571D01*
X134024572Y-148903571D01*
X134167429Y-148975000D01*
X134238858Y-149117857D01*
X134238858Y-149903571D01*
X135596001Y-149832143D02*
X135453144Y-149903571D01*
X135167430Y-149903571D01*
X135024572Y-149832143D01*
X134953144Y-149760714D01*
X134881715Y-149617857D01*
X134881715Y-149189286D01*
X134953144Y-149046429D01*
X135024572Y-148975000D01*
X135167430Y-148903571D01*
X135453144Y-148903571D01*
X135596001Y-148975000D01*
X136238858Y-149903571D02*
X136238858Y-148903571D01*
X136238858Y-148403571D02*
X136167429Y-148475000D01*
X136238858Y-148546429D01*
X136310286Y-148475000D01*
X136238858Y-148403571D01*
X136238858Y-148546429D01*
X136881715Y-149832143D02*
X137024572Y-149903571D01*
X137310287Y-149903571D01*
X137453144Y-149832143D01*
X137524572Y-149689286D01*
X137524572Y-149617857D01*
X137453144Y-149475000D01*
X137310287Y-149403571D01*
X137096001Y-149403571D01*
X136953144Y-149332143D01*
X136881715Y-149189286D01*
X136881715Y-149117857D01*
X136953144Y-148975000D01*
X137096001Y-148903571D01*
X137310287Y-148903571D01*
X137453144Y-148975000D01*
X139167430Y-148403571D02*
X139524573Y-149903571D01*
X139810287Y-148832143D01*
X140096001Y-149903571D01*
X140453144Y-148403571D01*
X141667430Y-149903571D02*
X141667430Y-149117857D01*
X141596001Y-148975000D01*
X141453144Y-148903571D01*
X141167430Y-148903571D01*
X141024573Y-148975000D01*
X141667430Y-149832143D02*
X141524573Y-149903571D01*
X141167430Y-149903571D01*
X141024573Y-149832143D01*
X140953144Y-149689286D01*
X140953144Y-149546429D01*
X141024573Y-149403571D01*
X141167430Y-149332143D01*
X141524573Y-149332143D01*
X141667430Y-149260714D01*
X142596002Y-149903571D02*
X142453144Y-149832143D01*
X142381716Y-149689286D01*
X142381716Y-148403571D01*
X143096001Y-149832143D02*
X143238858Y-149903571D01*
X143524573Y-149903571D01*
X143667430Y-149832143D01*
X143738858Y-149689286D01*
X143738858Y-149617857D01*
X143667430Y-149475000D01*
X143524573Y-149403571D01*
X143310287Y-149403571D01*
X143167430Y-149332143D01*
X143096001Y-149189286D01*
X143096001Y-149117857D01*
X143167430Y-148975000D01*
X143310287Y-148903571D01*
X143524573Y-148903571D01*
X143667430Y-148975000D01*
X144381716Y-149903571D02*
X144381716Y-148403571D01*
X145024573Y-149903571D02*
X145024573Y-149117857D01*
X144953144Y-148975000D01*
X144810287Y-148903571D01*
X144596002Y-148903571D01*
X144453144Y-148975000D01*
X144381716Y-149046429D01*
X146810287Y-148546429D02*
X146881716Y-148475000D01*
X147024573Y-148403571D01*
X147381716Y-148403571D01*
X147524573Y-148475000D01*
X147596002Y-148546429D01*
X147667430Y-148689286D01*
X147667430Y-148832143D01*
X147596002Y-149046429D01*
X146738859Y-149903571D01*
X147667430Y-149903571D01*
X148596001Y-148403571D02*
X148738858Y-148403571D01*
X148881715Y-148475000D01*
X148953144Y-148546429D01*
X149024573Y-148689286D01*
X149096001Y-148975000D01*
X149096001Y-149332143D01*
X149024573Y-149617857D01*
X148953144Y-149760714D01*
X148881715Y-149832143D01*
X148738858Y-149903571D01*
X148596001Y-149903571D01*
X148453144Y-149832143D01*
X148381715Y-149760714D01*
X148310287Y-149617857D01*
X148238858Y-149332143D01*
X148238858Y-148975000D01*
X148310287Y-148689286D01*
X148381715Y-148546429D01*
X148453144Y-148475000D01*
X148596001Y-148403571D01*
X150524572Y-149903571D02*
X149667429Y-149903571D01*
X150096001Y-149903571D02*
X150096001Y-148403571D01*
X149953144Y-148617857D01*
X149810286Y-148760714D01*
X149667429Y-148832143D01*
X151381715Y-149046429D02*
X151238857Y-148975000D01*
X151167429Y-148903571D01*
X151096000Y-148760714D01*
X151096000Y-148689286D01*
X151167429Y-148546429D01*
X151238857Y-148475000D01*
X151381715Y-148403571D01*
X151667429Y-148403571D01*
X151810286Y-148475000D01*
X151881715Y-148546429D01*
X151953143Y-148689286D01*
X151953143Y-148760714D01*
X151881715Y-148903571D01*
X151810286Y-148975000D01*
X151667429Y-149046429D01*
X151381715Y-149046429D01*
X151238857Y-149117857D01*
X151167429Y-149189286D01*
X151096000Y-149332143D01*
X151096000Y-149617857D01*
X151167429Y-149760714D01*
X151238857Y-149832143D01*
X151381715Y-149903571D01*
X151667429Y-149903571D01*
X151810286Y-149832143D01*
X151881715Y-149760714D01*
X151953143Y-149617857D01*
X151953143Y-149332143D01*
X151881715Y-149189286D01*
X151810286Y-149117857D01*
X151667429Y-149046429D01*
D12*
X187880000Y-121594000D02*
X187880000Y-112594000D01*
X187880000Y-112594000D02*
X202380000Y-112594000D01*
X202380000Y-112594000D02*
X202380000Y-114444000D01*
X202380000Y-121594000D02*
X187880000Y-121594000D01*
X202380000Y-119644000D02*
X202380000Y-121594000D01*
D13*
X203780000Y-117094000D02*
G75*
G03X203780000Y-117094000I-200000J0D01*
G01*
D14*
X141912000Y-142106000D02*
X143412000Y-142106000D01*
X143412000Y-142106000D02*
X143412000Y-140296000D01*
X143412000Y-140296000D02*
X148537000Y-140296000D01*
X141912000Y-131706000D02*
X143412000Y-131706000D01*
X143412000Y-131706000D02*
X143412000Y-133516000D01*
X143412000Y-133516000D02*
X144512000Y-133516000D01*
X141658000Y-107054000D02*
X143158000Y-107054000D01*
X143158000Y-107054000D02*
X143158000Y-105244000D01*
X143158000Y-105244000D02*
X148283000Y-105244000D01*
X141658000Y-96654000D02*
X143158000Y-96654000D01*
X143158000Y-96654000D02*
X143158000Y-98464000D01*
X143158000Y-98464000D02*
X144258000Y-98464000D01*
X120016000Y-134240000D02*
X120016000Y-132320000D01*
X120016000Y-127380000D02*
X120016000Y-129300000D01*
X128396000Y-135000000D02*
X128396000Y-132320000D01*
X128396000Y-126620000D02*
X128396000Y-129300000D01*
X128396000Y-135000000D02*
X120776000Y-135000000D01*
X120776000Y-135000000D02*
X120016000Y-134240000D01*
X120016000Y-127380000D02*
X120776000Y-126620000D01*
X120776000Y-126620000D02*
X128396000Y-126620000D01*
X171318000Y-132210000D02*
X174208000Y-132210000D01*
X180218000Y-132210000D02*
X177328000Y-132210000D01*
X180978000Y-121790000D02*
X177328000Y-121790000D01*
X170558000Y-121790000D02*
X174208000Y-121790000D01*
X180978000Y-121790000D02*
X180978000Y-131450000D01*
X180978000Y-131450000D02*
X180218000Y-132210000D01*
X171318000Y-132210000D02*
X170558000Y-131450000D01*
X170558000Y-131450000D02*
X170558000Y-121790000D01*
X119508000Y-108840000D02*
X119508000Y-106920000D01*
X119508000Y-101980000D02*
X119508000Y-103900000D01*
X127888000Y-109600000D02*
X127888000Y-106920000D01*
X127888000Y-101220000D02*
X127888000Y-103900000D01*
X127888000Y-109600000D02*
X120268000Y-109600000D01*
X120268000Y-109600000D02*
X119508000Y-108840000D01*
X119508000Y-101980000D02*
X120268000Y-101220000D01*
X120268000Y-101220000D02*
X127888000Y-101220000D01*
X180218000Y-103502000D02*
X177328000Y-103502000D01*
X171318000Y-103502000D02*
X174208000Y-103502000D01*
X170558000Y-113922000D02*
X174208000Y-113922000D01*
X180978000Y-113922000D02*
X177328000Y-113922000D01*
X170558000Y-113922000D02*
X170558000Y-104262000D01*
X170558000Y-104262000D02*
X171318000Y-103502000D01*
X180218000Y-103502000D02*
X180978000Y-104262000D01*
X180978000Y-104262000D02*
X180978000Y-113922000D01*
X200790000Y-109352000D02*
X200790000Y-106462000D01*
X200790000Y-100452000D02*
X200790000Y-103342000D01*
X190370000Y-99692000D02*
X190370000Y-103342000D01*
X190370000Y-110112000D02*
X190370000Y-106462000D01*
X190370000Y-99692000D02*
X200030000Y-99692000D01*
X200030000Y-99692000D02*
X200790000Y-100452000D01*
X200790000Y-109352000D02*
X200030000Y-110112000D01*
X200030000Y-110112000D02*
X190370000Y-110112000D01*
X134274000Y-123326000D02*
X135474000Y-123326000D01*
X135474000Y-125086000D02*
X134274000Y-125086000D01*
X123706000Y-138512000D02*
X124706000Y-138512000D01*
X124706000Y-139872000D02*
X123706000Y-139872000D01*
X154194000Y-135836000D02*
X156194000Y-135836000D01*
X156194000Y-137976000D02*
X154194000Y-137976000D01*
X184522000Y-127924000D02*
X184522000Y-129124000D01*
X182762000Y-129124000D02*
X182762000Y-127924000D01*
X134020000Y-114436000D02*
X135220000Y-114436000D01*
X135220000Y-116196000D02*
X134020000Y-116196000D01*
X123198000Y-96348000D02*
X124198000Y-96348000D01*
X124198000Y-97708000D02*
X123198000Y-97708000D01*
X153940000Y-98752000D02*
X155940000Y-98752000D01*
X155940000Y-100892000D02*
X153940000Y-100892000D01*
X183524000Y-109566000D02*
X183524000Y-108366000D01*
X185284000Y-108366000D02*
X185284000Y-109566000D01*
X176132000Y-147486000D02*
X176132000Y-143936000D01*
X177882000Y-147486000D02*
X176132000Y-147486000D01*
X184482000Y-147486000D02*
X186232000Y-147486000D01*
X186232000Y-147486000D02*
X186232000Y-143886000D01*
X181182000Y-146086000D02*
X181132000Y-143836000D01*
X181182000Y-146086000D02*
X180232000Y-145086000D01*
X181132000Y-146086000D02*
X182132000Y-145136000D01*
X184482000Y-146086000D02*
X184482000Y-148786000D01*
X184482000Y-148786000D02*
X177882000Y-148786000D01*
X177882000Y-148786000D02*
X177882000Y-146086000D01*
X177882000Y-146086000D02*
X184482000Y-146086000D01*
X185390000Y-91020000D02*
X185390000Y-94570000D01*
X183640000Y-91020000D02*
X185390000Y-91020000D01*
X177040000Y-91020000D02*
X175290000Y-91020000D01*
X175290000Y-91020000D02*
X175290000Y-94620000D01*
X180340000Y-92420000D02*
X180390000Y-94670000D01*
X180340000Y-92420000D02*
X181290000Y-93420000D01*
X180390000Y-92420000D02*
X179390000Y-93370000D01*
X177040000Y-92420000D02*
X177040000Y-89720000D01*
X177040000Y-89720000D02*
X183640000Y-89720000D01*
X183640000Y-89720000D02*
X183640000Y-92420000D01*
X183640000Y-92420000D02*
X177040000Y-92420000D01*
D15*
X153824940Y-124571760D02*
G75*
G03X153824940Y-124571760I-1498600J0D01*
G01*
X150802340Y-122394980D02*
G75*
G03X150802340Y-122394980I-1498600J0D01*
G01*
X149702520Y-118874540D02*
G75*
G03X149702520Y-118874540I-1498600J0D01*
G01*
X150827740Y-115343940D02*
G75*
G03X150827740Y-115343940I-1498600J0D01*
G01*
X153827480Y-113172240D02*
G75*
G03X153827480Y-113172240I-1498600J0D01*
G01*
X157525720Y-113169700D02*
G75*
G03X157525720Y-113169700I-1498600J0D01*
G01*
X160528000Y-115346480D02*
G75*
G03X160528000Y-115346480I-1498600J0D01*
G01*
X160528000Y-122394980D02*
G75*
G03X160528000Y-122394980I-1498600J0D01*
G01*
X157525720Y-124571760D02*
G75*
G03X157525720Y-124571760I-1498600J0D01*
G01*
X164277040Y-124371100D02*
X163977320Y-124297440D01*
X165577520Y-120373140D02*
X165376860Y-120271540D01*
X144101820Y-113347500D02*
X144277080Y-113421160D01*
X142778480Y-117396260D02*
X142979140Y-117472460D01*
X165577520Y-120373140D02*
G75*
G03X155679140Y-107472480I-11399520J1501140D01*
G01*
X159727900Y-108795820D02*
G75*
G03X144101820Y-113322100I-5549900J-10076180D01*
G01*
X142778480Y-117396260D02*
G75*
G03X152702260Y-130271520I11399520J-1475740D01*
G01*
X148678900Y-128971040D02*
G75*
G03X164277040Y-124371100I5499100J10099040D01*
G01*
X162702240Y-121620280D02*
G75*
G03X164053520Y-124322840I2026920J-675640D01*
G01*
X165376860Y-120269000D02*
G75*
G03X162702240Y-121648220I-647700J-2026920D01*
G01*
X145653760Y-116098320D02*
G75*
G03X144277080Y-113421160I-2026920J650240D01*
G01*
X143002000Y-117475000D02*
G75*
G03X145653760Y-116072920I624840J2026920D01*
G01*
X155978860Y-118872000D02*
G75*
G03X155978860Y-118872000I-1800860J0D01*
G01*
X163174680Y-118872000D02*
G75*
G03X163174680Y-118872000I-8996680J0D01*
G01*
D14*
X167264000Y-140316000D02*
X167264000Y-139056000D01*
X167264000Y-133496000D02*
X167264000Y-134756000D01*
X163504000Y-140316000D02*
X167264000Y-140316000D01*
X161254000Y-133496000D02*
X167264000Y-133496000D01*
X166756000Y-103486000D02*
X166756000Y-102226000D01*
X166756000Y-96666000D02*
X166756000Y-97926000D01*
X162996000Y-103486000D02*
X166756000Y-103486000D01*
X160746000Y-96666000D02*
X166756000Y-96666000D01*
X134374000Y-122516000D02*
X135374000Y-122516000D01*
X135374000Y-120816000D02*
X134374000Y-120816000D01*
X134120000Y-113880000D02*
X135120000Y-113880000D01*
X135120000Y-112180000D02*
X134120000Y-112180000D01*
D16*
X198914728Y-123324798D02*
X198914728Y-124040627D01*
X198867006Y-124183792D01*
X198771562Y-124279236D01*
X198628397Y-124326958D01*
X198532953Y-124326958D01*
X199296503Y-123324798D02*
X199916887Y-123324798D01*
X199582834Y-123706573D01*
X199726000Y-123706573D01*
X199821444Y-123754295D01*
X199869166Y-123802017D01*
X199916887Y-123897461D01*
X199916887Y-124136070D01*
X199869166Y-124231514D01*
X199821444Y-124279236D01*
X199726000Y-124326958D01*
X199439668Y-124326958D01*
X199344225Y-124279236D01*
X199296503Y-124231514D01*
X200537272Y-123324798D02*
X200632716Y-123324798D01*
X200728160Y-123372520D01*
X200775882Y-123420242D01*
X200823604Y-123515686D01*
X200871325Y-123706573D01*
X200871325Y-123945183D01*
X200823604Y-124136070D01*
X200775882Y-124231514D01*
X200728160Y-124279236D01*
X200632716Y-124326958D01*
X200537272Y-124326958D01*
X200441828Y-124279236D01*
X200394106Y-124231514D01*
X200346385Y-124136070D01*
X200298663Y-123945183D01*
X200298663Y-123706573D01*
X200346385Y-123515686D01*
X200394106Y-123420242D01*
X200441828Y-123372520D01*
X200537272Y-123324798D01*
D17*
X139890572Y-144103619D02*
X139795334Y-144056000D01*
X139700096Y-143960762D01*
X139557239Y-143817905D01*
X139462000Y-143770286D01*
X139366762Y-143770286D01*
X139414381Y-144008381D02*
X139319143Y-143960762D01*
X139223905Y-143865524D01*
X139176286Y-143675048D01*
X139176286Y-143341714D01*
X139223905Y-143151238D01*
X139319143Y-143056000D01*
X139414381Y-143008381D01*
X139604858Y-143008381D01*
X139700096Y-143056000D01*
X139795334Y-143151238D01*
X139842953Y-143341714D01*
X139842953Y-143675048D01*
X139795334Y-143865524D01*
X139700096Y-143960762D01*
X139604858Y-144008381D01*
X139414381Y-144008381D01*
X140795334Y-144008381D02*
X140223905Y-144008381D01*
X140509619Y-144008381D02*
X140509619Y-143008381D01*
X140414381Y-143151238D01*
X140319143Y-143246476D01*
X140223905Y-143294095D01*
X141414381Y-143008381D02*
X141509620Y-143008381D01*
X141604858Y-143056000D01*
X141652477Y-143103619D01*
X141700096Y-143198857D01*
X141747715Y-143389333D01*
X141747715Y-143627429D01*
X141700096Y-143817905D01*
X141652477Y-143913143D01*
X141604858Y-143960762D01*
X141509620Y-144008381D01*
X141414381Y-144008381D01*
X141319143Y-143960762D01*
X141271524Y-143913143D01*
X141223905Y-143817905D01*
X141176286Y-143627429D01*
X141176286Y-143389333D01*
X141223905Y-143198857D01*
X141271524Y-143103619D01*
X141319143Y-143056000D01*
X141414381Y-143008381D01*
X139636572Y-109051619D02*
X139541334Y-109004000D01*
X139446096Y-108908762D01*
X139303239Y-108765905D01*
X139208000Y-108718286D01*
X139112762Y-108718286D01*
X139160381Y-108956381D02*
X139065143Y-108908762D01*
X138969905Y-108813524D01*
X138922286Y-108623048D01*
X138922286Y-108289714D01*
X138969905Y-108099238D01*
X139065143Y-108004000D01*
X139160381Y-107956381D01*
X139350858Y-107956381D01*
X139446096Y-108004000D01*
X139541334Y-108099238D01*
X139588953Y-108289714D01*
X139588953Y-108623048D01*
X139541334Y-108813524D01*
X139446096Y-108908762D01*
X139350858Y-108956381D01*
X139160381Y-108956381D01*
X139969905Y-108051619D02*
X140017524Y-108004000D01*
X140112762Y-107956381D01*
X140350858Y-107956381D01*
X140446096Y-108004000D01*
X140493715Y-108051619D01*
X140541334Y-108146857D01*
X140541334Y-108242095D01*
X140493715Y-108384952D01*
X139922286Y-108956381D01*
X140541334Y-108956381D01*
X141160381Y-107956381D02*
X141255620Y-107956381D01*
X141350858Y-108004000D01*
X141398477Y-108051619D01*
X141446096Y-108146857D01*
X141493715Y-108337333D01*
X141493715Y-108575429D01*
X141446096Y-108765905D01*
X141398477Y-108861143D01*
X141350858Y-108908762D01*
X141255620Y-108956381D01*
X141160381Y-108956381D01*
X141065143Y-108908762D01*
X141017524Y-108861143D01*
X140969905Y-108765905D01*
X140922286Y-108575429D01*
X140922286Y-108337333D01*
X140969905Y-108146857D01*
X141017524Y-108051619D01*
X141065143Y-108004000D01*
X141160381Y-107956381D01*
X123563143Y-136617143D02*
X123515524Y-136664762D01*
X123372667Y-136712381D01*
X123277429Y-136712381D01*
X123134571Y-136664762D01*
X123039333Y-136569524D01*
X122991714Y-136474286D01*
X122944095Y-136283810D01*
X122944095Y-136140952D01*
X122991714Y-135950476D01*
X123039333Y-135855238D01*
X123134571Y-135760000D01*
X123277429Y-135712381D01*
X123372667Y-135712381D01*
X123515524Y-135760000D01*
X123563143Y-135807619D01*
X124515524Y-136712381D02*
X123944095Y-136712381D01*
X124229809Y-136712381D02*
X124229809Y-135712381D01*
X124134571Y-135855238D01*
X124039333Y-135950476D01*
X123944095Y-135998095D01*
X125467905Y-136712381D02*
X124896476Y-136712381D01*
X125182190Y-136712381D02*
X125182190Y-135712381D01*
X125086952Y-135855238D01*
X124991714Y-135950476D01*
X124896476Y-135998095D01*
X119045048Y-134791429D02*
X119806953Y-134791429D01*
X119426001Y-135172381D02*
X119426001Y-134410476D01*
X167997143Y-127642857D02*
X168044762Y-127690476D01*
X168092381Y-127833333D01*
X168092381Y-127928571D01*
X168044762Y-128071429D01*
X167949524Y-128166667D01*
X167854286Y-128214286D01*
X167663810Y-128261905D01*
X167520952Y-128261905D01*
X167330476Y-128214286D01*
X167235238Y-128166667D01*
X167140000Y-128071429D01*
X167092381Y-127928571D01*
X167092381Y-127833333D01*
X167140000Y-127690476D01*
X167187619Y-127642857D01*
X168092381Y-126690476D02*
X168092381Y-127261905D01*
X168092381Y-126976191D02*
X167092381Y-126976191D01*
X167235238Y-127071429D01*
X167330476Y-127166667D01*
X167378095Y-127261905D01*
X167187619Y-126309524D02*
X167140000Y-126261905D01*
X167092381Y-126166667D01*
X167092381Y-125928571D01*
X167140000Y-125833333D01*
X167187619Y-125785714D01*
X167282857Y-125738095D01*
X167378095Y-125738095D01*
X167520952Y-125785714D01*
X168092381Y-126357143D01*
X168092381Y-125738095D01*
X180809429Y-133160952D02*
X180809429Y-132399047D01*
X181190381Y-132779999D02*
X180428476Y-132779999D01*
X123055143Y-111217143D02*
X123007524Y-111264762D01*
X122864667Y-111312381D01*
X122769429Y-111312381D01*
X122626571Y-111264762D01*
X122531333Y-111169524D01*
X122483714Y-111074286D01*
X122436095Y-110883810D01*
X122436095Y-110740952D01*
X122483714Y-110550476D01*
X122531333Y-110455238D01*
X122626571Y-110360000D01*
X122769429Y-110312381D01*
X122864667Y-110312381D01*
X123007524Y-110360000D01*
X123055143Y-110407619D01*
X123436095Y-110407619D02*
X123483714Y-110360000D01*
X123578952Y-110312381D01*
X123817048Y-110312381D01*
X123912286Y-110360000D01*
X123959905Y-110407619D01*
X124007524Y-110502857D01*
X124007524Y-110598095D01*
X123959905Y-110740952D01*
X123388476Y-111312381D01*
X124007524Y-111312381D01*
X124959905Y-111312381D02*
X124388476Y-111312381D01*
X124674190Y-111312381D02*
X124674190Y-110312381D01*
X124578952Y-110455238D01*
X124483714Y-110550476D01*
X124388476Y-110598095D01*
X118537048Y-109391429D02*
X119298953Y-109391429D01*
X118918001Y-109772381D02*
X118918001Y-109010476D01*
X167997143Y-109354857D02*
X168044762Y-109402476D01*
X168092381Y-109545333D01*
X168092381Y-109640571D01*
X168044762Y-109783429D01*
X167949524Y-109878667D01*
X167854286Y-109926286D01*
X167663810Y-109973905D01*
X167520952Y-109973905D01*
X167330476Y-109926286D01*
X167235238Y-109878667D01*
X167140000Y-109783429D01*
X167092381Y-109640571D01*
X167092381Y-109545333D01*
X167140000Y-109402476D01*
X167187619Y-109354857D01*
X167187619Y-108973905D02*
X167140000Y-108926286D01*
X167092381Y-108831048D01*
X167092381Y-108592952D01*
X167140000Y-108497714D01*
X167187619Y-108450095D01*
X167282857Y-108402476D01*
X167378095Y-108402476D01*
X167520952Y-108450095D01*
X168092381Y-109021524D01*
X168092381Y-108402476D01*
X167187619Y-108021524D02*
X167140000Y-107973905D01*
X167092381Y-107878667D01*
X167092381Y-107640571D01*
X167140000Y-107545333D01*
X167187619Y-107497714D01*
X167282857Y-107450095D01*
X167378095Y-107450095D01*
X167520952Y-107497714D01*
X168092381Y-108069143D01*
X168092381Y-107450095D01*
X170869429Y-103312952D02*
X170869429Y-102551047D01*
X171250381Y-102931999D02*
X170488476Y-102931999D01*
X188952143Y-102242857D02*
X188999762Y-102290476D01*
X189047381Y-102433333D01*
X189047381Y-102528571D01*
X188999762Y-102671429D01*
X188904524Y-102766667D01*
X188809286Y-102814286D01*
X188618810Y-102861905D01*
X188475952Y-102861905D01*
X188285476Y-102814286D01*
X188190238Y-102766667D01*
X188095000Y-102671429D01*
X188047381Y-102528571D01*
X188047381Y-102433333D01*
X188095000Y-102290476D01*
X188142619Y-102242857D01*
X188047381Y-101909524D02*
X188047381Y-101290476D01*
X188428333Y-101623810D01*
X188428333Y-101480952D01*
X188475952Y-101385714D01*
X188523571Y-101338095D01*
X188618810Y-101290476D01*
X188856905Y-101290476D01*
X188952143Y-101338095D01*
X188999762Y-101385714D01*
X189047381Y-101480952D01*
X189047381Y-101766667D01*
X188999762Y-101861905D01*
X188952143Y-101909524D01*
X188047381Y-100671429D02*
X188047381Y-100576190D01*
X188095000Y-100480952D01*
X188142619Y-100433333D01*
X188237857Y-100385714D01*
X188428333Y-100338095D01*
X188666429Y-100338095D01*
X188856905Y-100385714D01*
X188952143Y-100433333D01*
X188999762Y-100480952D01*
X189047381Y-100576190D01*
X189047381Y-100671429D01*
X188999762Y-100766667D01*
X188952143Y-100814286D01*
X188856905Y-100861905D01*
X188666429Y-100909524D01*
X188428333Y-100909524D01*
X188237857Y-100861905D01*
X188142619Y-100814286D01*
X188095000Y-100766667D01*
X188047381Y-100671429D01*
X200979048Y-100003429D02*
X201740953Y-100003429D01*
X201360001Y-100384381D02*
X201360001Y-99622476D01*
X134231143Y-126358381D02*
X133897809Y-125882190D01*
X133659714Y-126358381D02*
X133659714Y-125358381D01*
X134040667Y-125358381D01*
X134135905Y-125406000D01*
X134183524Y-125453619D01*
X134231143Y-125548857D01*
X134231143Y-125691714D01*
X134183524Y-125786952D01*
X134135905Y-125834571D01*
X134040667Y-125882190D01*
X133659714Y-125882190D01*
X135183524Y-126358381D02*
X134612095Y-126358381D01*
X134897809Y-126358381D02*
X134897809Y-125358381D01*
X134802571Y-125501238D01*
X134707333Y-125596476D01*
X134612095Y-125644095D01*
X135802571Y-125358381D02*
X135897810Y-125358381D01*
X135993048Y-125406000D01*
X136040667Y-125453619D01*
X136088286Y-125548857D01*
X136135905Y-125739333D01*
X136135905Y-125977429D01*
X136088286Y-126167905D01*
X136040667Y-126263143D01*
X135993048Y-126310762D01*
X135897810Y-126358381D01*
X135802571Y-126358381D01*
X135707333Y-126310762D01*
X135659714Y-126263143D01*
X135612095Y-126167905D01*
X135564476Y-125977429D01*
X135564476Y-125739333D01*
X135612095Y-125548857D01*
X135659714Y-125453619D01*
X135707333Y-125406000D01*
X135802571Y-125358381D01*
X123563143Y-141094381D02*
X123229809Y-140618190D01*
X122991714Y-141094381D02*
X122991714Y-140094381D01*
X123372667Y-140094381D01*
X123467905Y-140142000D01*
X123515524Y-140189619D01*
X123563143Y-140284857D01*
X123563143Y-140427714D01*
X123515524Y-140522952D01*
X123467905Y-140570571D01*
X123372667Y-140618190D01*
X122991714Y-140618190D01*
X124515524Y-141094381D02*
X123944095Y-141094381D01*
X124229809Y-141094381D02*
X124229809Y-140094381D01*
X124134571Y-140237238D01*
X124039333Y-140332476D01*
X123944095Y-140380095D01*
X125467905Y-141094381D02*
X124896476Y-141094381D01*
X125182190Y-141094381D02*
X125182190Y-140094381D01*
X125086952Y-140237238D01*
X124991714Y-140332476D01*
X124896476Y-140380095D01*
X154551143Y-134056381D02*
X154217809Y-133580190D01*
X153979714Y-134056381D02*
X153979714Y-133056381D01*
X154360667Y-133056381D01*
X154455905Y-133104000D01*
X154503524Y-133151619D01*
X154551143Y-133246857D01*
X154551143Y-133389714D01*
X154503524Y-133484952D01*
X154455905Y-133532571D01*
X154360667Y-133580190D01*
X153979714Y-133580190D01*
X155503524Y-134056381D02*
X154932095Y-134056381D01*
X155217809Y-134056381D02*
X155217809Y-133056381D01*
X155122571Y-133199238D01*
X155027333Y-133294476D01*
X154932095Y-133342095D01*
X155884476Y-133151619D02*
X155932095Y-133104000D01*
X156027333Y-133056381D01*
X156265429Y-133056381D01*
X156360667Y-133104000D01*
X156408286Y-133151619D01*
X156455905Y-133246857D01*
X156455905Y-133342095D01*
X156408286Y-133484952D01*
X155836857Y-134056381D01*
X156455905Y-134056381D01*
X182697381Y-128912857D02*
X182221190Y-129246191D01*
X182697381Y-129484286D02*
X181697381Y-129484286D01*
X181697381Y-129103333D01*
X181745000Y-129008095D01*
X181792619Y-128960476D01*
X181887857Y-128912857D01*
X182030714Y-128912857D01*
X182125952Y-128960476D01*
X182173571Y-129008095D01*
X182221190Y-129103333D01*
X182221190Y-129484286D01*
X182697381Y-127960476D02*
X182697381Y-128531905D01*
X182697381Y-128246191D02*
X181697381Y-128246191D01*
X181840238Y-128341429D01*
X181935476Y-128436667D01*
X181983095Y-128531905D01*
X181697381Y-127627143D02*
X181697381Y-127008095D01*
X182078333Y-127341429D01*
X182078333Y-127198571D01*
X182125952Y-127103333D01*
X182173571Y-127055714D01*
X182268810Y-127008095D01*
X182506905Y-127008095D01*
X182602143Y-127055714D01*
X182649762Y-127103333D01*
X182697381Y-127198571D01*
X182697381Y-127484286D01*
X182649762Y-127579524D01*
X182602143Y-127627143D01*
X132072143Y-117468381D02*
X131738809Y-116992190D01*
X131500714Y-117468381D02*
X131500714Y-116468381D01*
X131881667Y-116468381D01*
X131976905Y-116516000D01*
X132024524Y-116563619D01*
X132072143Y-116658857D01*
X132072143Y-116801714D01*
X132024524Y-116896952D01*
X131976905Y-116944571D01*
X131881667Y-116992190D01*
X131500714Y-116992190D01*
X132453095Y-116563619D02*
X132500714Y-116516000D01*
X132595952Y-116468381D01*
X132834048Y-116468381D01*
X132929286Y-116516000D01*
X132976905Y-116563619D01*
X133024524Y-116658857D01*
X133024524Y-116754095D01*
X132976905Y-116896952D01*
X132405476Y-117468381D01*
X133024524Y-117468381D01*
X133643571Y-116468381D02*
X133738810Y-116468381D01*
X133834048Y-116516000D01*
X133881667Y-116563619D01*
X133929286Y-116658857D01*
X133976905Y-116849333D01*
X133976905Y-117087429D01*
X133929286Y-117277905D01*
X133881667Y-117373143D01*
X133834048Y-117420762D01*
X133738810Y-117468381D01*
X133643571Y-117468381D01*
X133548333Y-117420762D01*
X133500714Y-117373143D01*
X133453095Y-117277905D01*
X133405476Y-117087429D01*
X133405476Y-116849333D01*
X133453095Y-116658857D01*
X133500714Y-116563619D01*
X133548333Y-116516000D01*
X133643571Y-116468381D01*
X123055143Y-98930381D02*
X122721809Y-98454190D01*
X122483714Y-98930381D02*
X122483714Y-97930381D01*
X122864667Y-97930381D01*
X122959905Y-97978000D01*
X123007524Y-98025619D01*
X123055143Y-98120857D01*
X123055143Y-98263714D01*
X123007524Y-98358952D01*
X122959905Y-98406571D01*
X122864667Y-98454190D01*
X122483714Y-98454190D01*
X123436095Y-98025619D02*
X123483714Y-97978000D01*
X123578952Y-97930381D01*
X123817048Y-97930381D01*
X123912286Y-97978000D01*
X123959905Y-98025619D01*
X124007524Y-98120857D01*
X124007524Y-98216095D01*
X123959905Y-98358952D01*
X123388476Y-98930381D01*
X124007524Y-98930381D01*
X124959905Y-98930381D02*
X124388476Y-98930381D01*
X124674190Y-98930381D02*
X124674190Y-97930381D01*
X124578952Y-98073238D01*
X124483714Y-98168476D01*
X124388476Y-98216095D01*
X154297143Y-102124381D02*
X153963809Y-101648190D01*
X153725714Y-102124381D02*
X153725714Y-101124381D01*
X154106667Y-101124381D01*
X154201905Y-101172000D01*
X154249524Y-101219619D01*
X154297143Y-101314857D01*
X154297143Y-101457714D01*
X154249524Y-101552952D01*
X154201905Y-101600571D01*
X154106667Y-101648190D01*
X153725714Y-101648190D01*
X154678095Y-101219619D02*
X154725714Y-101172000D01*
X154820952Y-101124381D01*
X155059048Y-101124381D01*
X155154286Y-101172000D01*
X155201905Y-101219619D01*
X155249524Y-101314857D01*
X155249524Y-101410095D01*
X155201905Y-101552952D01*
X154630476Y-102124381D01*
X155249524Y-102124381D01*
X155630476Y-101219619D02*
X155678095Y-101172000D01*
X155773333Y-101124381D01*
X156011429Y-101124381D01*
X156106667Y-101172000D01*
X156154286Y-101219619D01*
X156201905Y-101314857D01*
X156201905Y-101410095D01*
X156154286Y-101552952D01*
X155582857Y-102124381D01*
X156201905Y-102124381D01*
X182824381Y-109862857D02*
X182348190Y-110196191D01*
X182824381Y-110434286D02*
X181824381Y-110434286D01*
X181824381Y-110053333D01*
X181872000Y-109958095D01*
X181919619Y-109910476D01*
X182014857Y-109862857D01*
X182157714Y-109862857D01*
X182252952Y-109910476D01*
X182300571Y-109958095D01*
X182348190Y-110053333D01*
X182348190Y-110434286D01*
X181919619Y-109481905D02*
X181872000Y-109434286D01*
X181824381Y-109339048D01*
X181824381Y-109100952D01*
X181872000Y-109005714D01*
X181919619Y-108958095D01*
X182014857Y-108910476D01*
X182110095Y-108910476D01*
X182252952Y-108958095D01*
X182824381Y-109529524D01*
X182824381Y-108910476D01*
X181824381Y-108577143D02*
X181824381Y-107958095D01*
X182205333Y-108291429D01*
X182205333Y-108148571D01*
X182252952Y-108053333D01*
X182300571Y-108005714D01*
X182395810Y-107958095D01*
X182633905Y-107958095D01*
X182729143Y-108005714D01*
X182776762Y-108053333D01*
X182824381Y-108148571D01*
X182824381Y-108434286D01*
X182776762Y-108529524D01*
X182729143Y-108577143D01*
X188834381Y-145007428D02*
X188358190Y-145340762D01*
X188834381Y-145578857D02*
X187834381Y-145578857D01*
X187834381Y-145197904D01*
X187882000Y-145102666D01*
X187929619Y-145055047D01*
X188024857Y-145007428D01*
X188167714Y-145007428D01*
X188262952Y-145055047D01*
X188310571Y-145102666D01*
X188358190Y-145197904D01*
X188358190Y-145578857D01*
X187834381Y-144721714D02*
X188834381Y-144388381D01*
X187834381Y-144055047D01*
X188834381Y-143197904D02*
X188834381Y-143769333D01*
X188834381Y-143483619D02*
X187834381Y-143483619D01*
X187977238Y-143578857D01*
X188072476Y-143674095D01*
X188120095Y-143769333D01*
X187834381Y-142578857D02*
X187834381Y-142483618D01*
X187882000Y-142388380D01*
X187929619Y-142340761D01*
X188024857Y-142293142D01*
X188215333Y-142245523D01*
X188453429Y-142245523D01*
X188643905Y-142293142D01*
X188739143Y-142340761D01*
X188786762Y-142388380D01*
X188834381Y-142483618D01*
X188834381Y-142578857D01*
X188786762Y-142674095D01*
X188739143Y-142721714D01*
X188643905Y-142769333D01*
X188453429Y-142816952D01*
X188215333Y-142816952D01*
X188024857Y-142769333D01*
X187929619Y-142721714D01*
X187882000Y-142674095D01*
X187834381Y-142578857D01*
X173592381Y-93781428D02*
X173116190Y-94114762D01*
X173592381Y-94352857D02*
X172592381Y-94352857D01*
X172592381Y-93971904D01*
X172640000Y-93876666D01*
X172687619Y-93829047D01*
X172782857Y-93781428D01*
X172925714Y-93781428D01*
X173020952Y-93829047D01*
X173068571Y-93876666D01*
X173116190Y-93971904D01*
X173116190Y-94352857D01*
X172592381Y-93495714D02*
X173592381Y-93162381D01*
X172592381Y-92829047D01*
X172687619Y-92543333D02*
X172640000Y-92495714D01*
X172592381Y-92400476D01*
X172592381Y-92162380D01*
X172640000Y-92067142D01*
X172687619Y-92019523D01*
X172782857Y-91971904D01*
X172878095Y-91971904D01*
X173020952Y-92019523D01*
X173592381Y-92590952D01*
X173592381Y-91971904D01*
X172592381Y-91352857D02*
X172592381Y-91257618D01*
X172640000Y-91162380D01*
X172687619Y-91114761D01*
X172782857Y-91067142D01*
X172973333Y-91019523D01*
X173211429Y-91019523D01*
X173401905Y-91067142D01*
X173497143Y-91114761D01*
X173544762Y-91162380D01*
X173592381Y-91257618D01*
X173592381Y-91352857D01*
X173544762Y-91448095D01*
X173497143Y-91495714D01*
X173401905Y-91543333D01*
X173211429Y-91590952D01*
X172973333Y-91590952D01*
X172782857Y-91543333D01*
X172687619Y-91495714D01*
X172640000Y-91448095D01*
X172592381Y-91352857D01*
D18*
X140643429Y-120033143D02*
X140643429Y-119162286D01*
X142167429Y-119597715D02*
X140643429Y-119597715D01*
X142167429Y-117856000D02*
X142167429Y-118726857D01*
X142167429Y-118291429D02*
X140643429Y-118291429D01*
X140861143Y-118436572D01*
X141006286Y-118581714D01*
X141078857Y-118726857D01*
X167966209Y-121339429D02*
X167966209Y-122210286D01*
X167966209Y-121774858D02*
X166442209Y-121774858D01*
X166659923Y-121920001D01*
X166805066Y-122065143D01*
X166877637Y-122210286D01*
X166587351Y-120758857D02*
X166514780Y-120686286D01*
X166442209Y-120541143D01*
X166442209Y-120178286D01*
X166514780Y-120033143D01*
X166587351Y-119960572D01*
X166732494Y-119888000D01*
X166877637Y-119888000D01*
X167095351Y-119960572D01*
X167966209Y-120831429D01*
X167966209Y-119888000D01*
X167530780Y-119307428D02*
X167530780Y-118581714D01*
X167966209Y-119452571D02*
X166442209Y-118944571D01*
X167966209Y-118436571D01*
X166442209Y-117928571D02*
X167675923Y-117928571D01*
X167821066Y-117855999D01*
X167893637Y-117783428D01*
X167966209Y-117638285D01*
X167966209Y-117347999D01*
X167893637Y-117202857D01*
X167821066Y-117130285D01*
X167675923Y-117057714D01*
X166442209Y-117057714D01*
X166442209Y-116477143D02*
X166442209Y-115461143D01*
X167966209Y-116114286D01*
D17*
X170140381Y-138398095D02*
X170949905Y-138398095D01*
X171045143Y-138350476D01*
X171092762Y-138302857D01*
X171140381Y-138207619D01*
X171140381Y-138017142D01*
X171092762Y-137921904D01*
X171045143Y-137874285D01*
X170949905Y-137826666D01*
X170140381Y-137826666D01*
X171140381Y-136826666D02*
X171140381Y-137398095D01*
X171140381Y-137112381D02*
X170140381Y-137112381D01*
X170283238Y-137207619D01*
X170378476Y-137302857D01*
X170426095Y-137398095D01*
X170140381Y-136207619D02*
X170140381Y-136112380D01*
X170188000Y-136017142D01*
X170235619Y-135969523D01*
X170330857Y-135921904D01*
X170521333Y-135874285D01*
X170759429Y-135874285D01*
X170949905Y-135921904D01*
X171045143Y-135969523D01*
X171092762Y-136017142D01*
X171140381Y-136112380D01*
X171140381Y-136207619D01*
X171092762Y-136302857D01*
X171045143Y-136350476D01*
X170949905Y-136398095D01*
X170759429Y-136445714D01*
X170521333Y-136445714D01*
X170330857Y-136398095D01*
X170235619Y-136350476D01*
X170188000Y-136302857D01*
X170140381Y-136207619D01*
X169632381Y-100806095D02*
X170441905Y-100806095D01*
X170537143Y-100758476D01*
X170584762Y-100710857D01*
X170632381Y-100615619D01*
X170632381Y-100425142D01*
X170584762Y-100329904D01*
X170537143Y-100282285D01*
X170441905Y-100234666D01*
X169632381Y-100234666D01*
X169727619Y-99806095D02*
X169680000Y-99758476D01*
X169632381Y-99663238D01*
X169632381Y-99425142D01*
X169680000Y-99329904D01*
X169727619Y-99282285D01*
X169822857Y-99234666D01*
X169918095Y-99234666D01*
X170060952Y-99282285D01*
X170632381Y-99853714D01*
X170632381Y-99234666D01*
X169632381Y-98615619D02*
X169632381Y-98520380D01*
X169680000Y-98425142D01*
X169727619Y-98377523D01*
X169822857Y-98329904D01*
X170013333Y-98282285D01*
X170251429Y-98282285D01*
X170441905Y-98329904D01*
X170537143Y-98377523D01*
X170584762Y-98425142D01*
X170632381Y-98520380D01*
X170632381Y-98615619D01*
X170584762Y-98710857D01*
X170537143Y-98758476D01*
X170441905Y-98806095D01*
X170251429Y-98853714D01*
X170013333Y-98853714D01*
X169822857Y-98806095D01*
X169727619Y-98758476D01*
X169680000Y-98710857D01*
X169632381Y-98615619D01*
X132072143Y-120372143D02*
X132024524Y-120419762D01*
X131881667Y-120467381D01*
X131786429Y-120467381D01*
X131643571Y-120419762D01*
X131548333Y-120324524D01*
X131500714Y-120229286D01*
X131453095Y-120038810D01*
X131453095Y-119895952D01*
X131500714Y-119705476D01*
X131548333Y-119610238D01*
X131643571Y-119515000D01*
X131786429Y-119467381D01*
X131881667Y-119467381D01*
X132024524Y-119515000D01*
X132072143Y-119562619D01*
X133024524Y-120467381D02*
X132453095Y-120467381D01*
X132738809Y-120467381D02*
X132738809Y-119467381D01*
X132643571Y-119610238D01*
X132548333Y-119705476D01*
X132453095Y-119753095D01*
X133643571Y-119467381D02*
X133738810Y-119467381D01*
X133834048Y-119515000D01*
X133881667Y-119562619D01*
X133929286Y-119657857D01*
X133976905Y-119848333D01*
X133976905Y-120086429D01*
X133929286Y-120276905D01*
X133881667Y-120372143D01*
X133834048Y-120419762D01*
X133738810Y-120467381D01*
X133643571Y-120467381D01*
X133548333Y-120419762D01*
X133500714Y-120372143D01*
X133453095Y-120276905D01*
X133405476Y-120086429D01*
X133405476Y-119848333D01*
X133453095Y-119657857D01*
X133500714Y-119562619D01*
X133548333Y-119515000D01*
X133643571Y-119467381D01*
X133977143Y-110212143D02*
X133929524Y-110259762D01*
X133786667Y-110307381D01*
X133691429Y-110307381D01*
X133548571Y-110259762D01*
X133453333Y-110164524D01*
X133405714Y-110069286D01*
X133358095Y-109878810D01*
X133358095Y-109735952D01*
X133405714Y-109545476D01*
X133453333Y-109450238D01*
X133548571Y-109355000D01*
X133691429Y-109307381D01*
X133786667Y-109307381D01*
X133929524Y-109355000D01*
X133977143Y-109402619D01*
X134358095Y-109402619D02*
X134405714Y-109355000D01*
X134500952Y-109307381D01*
X134739048Y-109307381D01*
X134834286Y-109355000D01*
X134881905Y-109402619D01*
X134929524Y-109497857D01*
X134929524Y-109593095D01*
X134881905Y-109735952D01*
X134310476Y-110307381D01*
X134929524Y-110307381D01*
X135548571Y-109307381D02*
X135643810Y-109307381D01*
X135739048Y-109355000D01*
X135786667Y-109402619D01*
X135834286Y-109497857D01*
X135881905Y-109688333D01*
X135881905Y-109926429D01*
X135834286Y-110116905D01*
X135786667Y-110212143D01*
X135739048Y-110259762D01*
X135643810Y-110307381D01*
X135548571Y-110307381D01*
X135453333Y-110259762D01*
X135405714Y-110212143D01*
X135358095Y-110116905D01*
X135310476Y-109926429D01*
X135310476Y-109688333D01*
X135358095Y-109497857D01*
X135405714Y-109402619D01*
X135453333Y-109355000D01*
X135548571Y-109307381D01*
D16*
X109133181Y-109010965D02*
X109133181Y-109726472D01*
X109085481Y-109869573D01*
X108990080Y-109964974D01*
X108846978Y-110012675D01*
X108751577Y-110012675D01*
X110039491Y-109344868D02*
X110039491Y-110012675D01*
X109800988Y-108963264D02*
X109562486Y-109678771D01*
X110182592Y-109678771D01*
X110754998Y-109010965D02*
X110850399Y-109010965D01*
X110945800Y-109058665D01*
X110993501Y-109106365D01*
X111041201Y-109201766D01*
X111088902Y-109392568D01*
X111088902Y-109631071D01*
X111041201Y-109821873D01*
X110993501Y-109917274D01*
X110945800Y-109964974D01*
X110850399Y-110012675D01*
X110754998Y-110012675D01*
X110659597Y-109964974D01*
X110611897Y-109917274D01*
X110564196Y-109821873D01*
X110516496Y-109631071D01*
X110516496Y-109392568D01*
X110564196Y-109201766D01*
X110611897Y-109106365D01*
X110659597Y-109058665D01*
X110754998Y-109010965D01*
X193081181Y-123607965D02*
X193081181Y-124323472D01*
X193033481Y-124466573D01*
X192938080Y-124561974D01*
X192794978Y-124609675D01*
X192699577Y-124609675D01*
X194035191Y-123607965D02*
X193558186Y-123607965D01*
X193510486Y-124084969D01*
X193558186Y-124037269D01*
X193653587Y-123989568D01*
X193892090Y-123989568D01*
X193987491Y-124037269D01*
X194035191Y-124084969D01*
X194082892Y-124180370D01*
X194082892Y-124418873D01*
X194035191Y-124514274D01*
X193987491Y-124561974D01*
X193892090Y-124609675D01*
X193653587Y-124609675D01*
X193558186Y-124561974D01*
X193510486Y-124514274D01*
X194702998Y-123607965D02*
X194798399Y-123607965D01*
X194893800Y-123655665D01*
X194941501Y-123703365D01*
X194989201Y-123798766D01*
X195036902Y-123989568D01*
X195036902Y-124228071D01*
X194989201Y-124418873D01*
X194941501Y-124514274D01*
X194893800Y-124561974D01*
X194798399Y-124609675D01*
X194702998Y-124609675D01*
X194607597Y-124561974D01*
X194559897Y-124514274D01*
X194512196Y-124418873D01*
X194464496Y-124228071D01*
X194464496Y-123989568D01*
X194512196Y-123798766D01*
X194559897Y-123703365D01*
X194607597Y-123655665D01*
X194702998Y-123607965D01*
D17*
X195770477Y-141365714D02*
X195770477Y-142032381D01*
X195532381Y-140984762D02*
X195294286Y-141699048D01*
X195913334Y-141699048D01*
X195294286Y-90327619D02*
X195341905Y-90280000D01*
X195437143Y-90232381D01*
X195675239Y-90232381D01*
X195770477Y-90280000D01*
X195818096Y-90327619D01*
X195865715Y-90422857D01*
X195865715Y-90518095D01*
X195818096Y-90660952D01*
X195246667Y-91232381D01*
X195865715Y-91232381D01*
X111426667Y-141032381D02*
X112045715Y-141032381D01*
X111712381Y-141413333D01*
X111855239Y-141413333D01*
X111950477Y-141460952D01*
X111998096Y-141508571D01*
X112045715Y-141603810D01*
X112045715Y-141841905D01*
X111998096Y-141937143D01*
X111950477Y-141984762D01*
X111855239Y-142032381D01*
X111569524Y-142032381D01*
X111474286Y-141984762D01*
X111426667Y-141937143D01*
X112045715Y-91232381D02*
X111474286Y-91232381D01*
X111760000Y-91232381D02*
X111760000Y-90232381D01*
X111664762Y-90375238D01*
X111569524Y-90470476D01*
X111474286Y-90518095D01*
M02*
