G04 #@! TF.FileFunction,Copper,L2,Bot,Signal*
%FSLAX46Y46*%
G04 Gerber Fmt 4.6, Leading zero omitted, Abs format (unit mm)*
G04 Created by KiCad (PCBNEW 4.0.7-e2-6376~58~ubuntu16.04.1) date Sat Jul 28 00:22:21 2018*
%MOMM*%
%LPD*%
G01*
G04 APERTURE LIST*
%ADD10C,0.100000*%
%ADD11O,2.500000X5.000000*%
%ADD12O,2.250000X4.500000*%
%ADD13C,1.524000*%
%ADD14C,2.500000*%
%ADD15C,2.499360*%
%ADD16C,4.400000*%
%ADD17C,0.700000*%
%ADD18C,0.600000*%
%ADD19C,0.750000*%
%ADD20C,1.500000*%
%ADD21C,0.450000*%
%ADD22C,0.254000*%
G04 APERTURE END LIST*
D10*
D11*
X201580000Y-117094000D03*
D12*
X195580000Y-117094000D03*
D13*
X134112000Y-139446000D03*
X139192000Y-139446000D03*
X136652000Y-136906000D03*
X139192000Y-134366000D03*
X134112000Y-134366000D03*
X133858000Y-104394000D03*
X138938000Y-104394000D03*
X138938000Y-99314000D03*
X133858000Y-99314000D03*
X136398000Y-101854000D03*
D14*
X181182000Y-141986000D03*
X176182000Y-141986000D03*
X186182000Y-141986000D03*
X180340000Y-96520000D03*
X185340000Y-96520000D03*
X175340000Y-96520000D03*
D15*
X162267900Y-124749560D03*
X157264100Y-128381760D03*
X151091900Y-128381760D03*
X146088100Y-124749560D03*
X144178020Y-118872000D03*
X146088100Y-112994440D03*
X151091900Y-109362240D03*
X157264100Y-109362240D03*
X162267900Y-112994440D03*
D16*
X195580000Y-144780000D03*
D17*
X197230000Y-144780000D03*
X196746726Y-145946726D03*
X195580000Y-146430000D03*
X194413274Y-145946726D03*
X193930000Y-144780000D03*
X194413274Y-143613274D03*
X195580000Y-143130000D03*
X196746726Y-143613274D03*
D16*
X195580000Y-93980000D03*
D17*
X197230000Y-93980000D03*
X196746726Y-95146726D03*
X195580000Y-95630000D03*
X194413274Y-95146726D03*
X193930000Y-93980000D03*
X194413274Y-92813274D03*
X195580000Y-92330000D03*
X196746726Y-92813274D03*
D16*
X111760000Y-144780000D03*
D17*
X113410000Y-144780000D03*
X112926726Y-145946726D03*
X111760000Y-146430000D03*
X110593274Y-145946726D03*
X110110000Y-144780000D03*
X110593274Y-143613274D03*
X111760000Y-143130000D03*
X112926726Y-143613274D03*
D16*
X111760000Y-93980000D03*
D17*
X113410000Y-93980000D03*
X112926726Y-95146726D03*
X111760000Y-95630000D03*
X110593274Y-95146726D03*
X110110000Y-93980000D03*
X110593274Y-92813274D03*
X111760000Y-92330000D03*
X112926726Y-92813274D03*
D18*
X109220000Y-121920000D03*
X119380000Y-139700000D03*
D19*
X152400000Y-134874000D03*
X160020000Y-134112000D03*
X183896000Y-131826000D03*
X191008000Y-131318000D03*
X184912000Y-105918000D03*
X187960000Y-105410000D03*
X159258000Y-98044000D03*
X153162000Y-98044000D03*
X130810000Y-115570000D03*
X131572000Y-124460000D03*
X121158000Y-97536000D03*
X117348000Y-105664000D03*
X117348000Y-130810000D03*
D20*
X173990000Y-134620000D03*
X165862000Y-138176000D03*
D18*
X173736000Y-101854000D03*
X167894000Y-104394000D03*
X150876000Y-101346000D03*
X149098000Y-99568000D03*
X177038000Y-98552000D03*
X185166000Y-99822000D03*
D19*
X144780000Y-110998000D03*
X144018000Y-107912000D03*
X150876000Y-140716000D03*
X153162000Y-140462000D03*
X173736000Y-138176000D03*
X176276000Y-137922000D03*
X187267314Y-129978686D03*
X188398686Y-128847314D03*
X190950314Y-126549686D03*
X192081686Y-125418314D03*
X144526000Y-102870000D03*
X146304000Y-98044000D03*
D20*
X146304000Y-137160000D03*
X173482000Y-139700000D03*
X178562000Y-139192000D03*
X146050000Y-101600000D03*
D21*
X169418000Y-134620000D02*
X173990000Y-134620000D01*
X165862000Y-138176000D02*
X169418000Y-134620000D01*
X172974000Y-102616000D02*
X173736000Y-101854000D01*
X169672000Y-102616000D02*
X172974000Y-102616000D01*
X167894000Y-104394000D02*
X169672000Y-102616000D01*
X149098000Y-99568000D02*
X150876000Y-101346000D01*
X185166000Y-99822000D02*
X183896000Y-98552000D01*
X183896000Y-98552000D02*
X177038000Y-98552000D01*
X144018000Y-107912000D02*
X144018000Y-110236000D01*
X144018000Y-110236000D02*
X144780000Y-110998000D01*
X153162000Y-140462000D02*
X151130000Y-140462000D01*
X151130000Y-140462000D02*
X150876000Y-140716000D01*
X176276000Y-137922000D02*
X173990000Y-137922000D01*
X173990000Y-137922000D02*
X173736000Y-138176000D01*
X188398686Y-128847314D02*
X187267314Y-129978686D01*
X192081686Y-125418314D02*
X190950314Y-126549686D01*
X146304000Y-98044000D02*
X144526000Y-99822000D01*
X144526000Y-99822000D02*
X144526000Y-102870000D01*
X173736000Y-139446000D02*
X173482000Y-139700000D01*
X178308000Y-139446000D02*
X173736000Y-139446000D01*
X178562000Y-139192000D02*
X178308000Y-139446000D01*
D22*
G36*
X203708000Y-114237943D02*
X203413358Y-114041069D01*
X202692000Y-113897582D01*
X201970642Y-114041069D01*
X201359104Y-114449686D01*
X200950487Y-115061224D01*
X200807000Y-115782582D01*
X200807000Y-118405418D01*
X200950487Y-119126776D01*
X201359104Y-119738314D01*
X201970642Y-120146931D01*
X202692000Y-120290418D01*
X203413358Y-120146931D01*
X203708000Y-119950057D01*
X203708000Y-147193000D01*
X197169533Y-147193000D01*
X197174632Y-147190888D01*
X197419777Y-146799382D01*
X197353346Y-146732951D01*
X197533107Y-146553502D01*
X197599382Y-146619777D01*
X197990888Y-146374632D01*
X198417609Y-145330640D01*
X198412330Y-144202819D01*
X197990888Y-143185368D01*
X197599382Y-142940223D01*
X197532951Y-143006654D01*
X197353502Y-142826893D01*
X197419777Y-142760618D01*
X197174632Y-142369112D01*
X196130640Y-141942391D01*
X195002819Y-141947670D01*
X193985368Y-142369112D01*
X193740223Y-142760618D01*
X193806654Y-142827049D01*
X193626893Y-143006498D01*
X193560618Y-142940223D01*
X193169112Y-143185368D01*
X192742391Y-144229360D01*
X192747670Y-145357181D01*
X193169112Y-146374632D01*
X193560618Y-146619777D01*
X193627049Y-146553346D01*
X193806498Y-146733107D01*
X193740223Y-146799382D01*
X193985368Y-147190888D01*
X193990535Y-147193000D01*
X113349533Y-147193000D01*
X113354632Y-147190888D01*
X113599777Y-146799382D01*
X113533346Y-146732951D01*
X113713107Y-146553502D01*
X113779382Y-146619777D01*
X114170888Y-146374632D01*
X114597609Y-145330640D01*
X114592330Y-144202819D01*
X114170888Y-143185368D01*
X113779382Y-142940223D01*
X113712951Y-143006654D01*
X113533502Y-142826893D01*
X113599777Y-142760618D01*
X113354632Y-142369112D01*
X112310640Y-141942391D01*
X111182819Y-141947670D01*
X110165368Y-142369112D01*
X109920223Y-142760618D01*
X109986654Y-142827049D01*
X109806893Y-143006498D01*
X109740618Y-142940223D01*
X109349112Y-143185368D01*
X108922391Y-144229360D01*
X108927670Y-145357181D01*
X109349112Y-146374632D01*
X109740618Y-146619777D01*
X109807049Y-146553346D01*
X109986498Y-146733107D01*
X109920223Y-146799382D01*
X110165368Y-147190888D01*
X110170535Y-147193000D01*
X106807000Y-147193000D01*
X106807000Y-140916020D01*
X149865825Y-140916020D01*
X150019264Y-141287372D01*
X150303134Y-141571737D01*
X150674217Y-141725824D01*
X151076020Y-141726175D01*
X151447372Y-141572736D01*
X151698545Y-141322000D01*
X152599400Y-141322000D01*
X152960217Y-141471824D01*
X153362020Y-141472175D01*
X153733372Y-141318736D01*
X154017737Y-141034866D01*
X154171824Y-140663783D01*
X154172175Y-140261980D01*
X154053303Y-139974285D01*
X172096760Y-139974285D01*
X172307169Y-140483515D01*
X172696436Y-140873461D01*
X173205298Y-141084759D01*
X173756285Y-141085240D01*
X174265515Y-140874831D01*
X174655461Y-140485564D01*
X174730023Y-140306000D01*
X175311767Y-140306000D01*
X175115628Y-140387043D01*
X174584907Y-140916839D01*
X174297328Y-141609405D01*
X174296674Y-142359305D01*
X174583043Y-143052372D01*
X175112839Y-143583093D01*
X175805405Y-143870672D01*
X176555305Y-143871326D01*
X177248372Y-143584957D01*
X177779093Y-143055161D01*
X178066672Y-142362595D01*
X178066674Y-142359305D01*
X179296674Y-142359305D01*
X179583043Y-143052372D01*
X180112839Y-143583093D01*
X180805405Y-143870672D01*
X181555305Y-143871326D01*
X182248372Y-143584957D01*
X182779093Y-143055161D01*
X183066672Y-142362595D01*
X183066674Y-142359305D01*
X184296674Y-142359305D01*
X184583043Y-143052372D01*
X185112839Y-143583093D01*
X185805405Y-143870672D01*
X186555305Y-143871326D01*
X187248372Y-143584957D01*
X187779093Y-143055161D01*
X188066672Y-142362595D01*
X188067326Y-141612695D01*
X187780957Y-140919628D01*
X187251161Y-140388907D01*
X186558595Y-140101328D01*
X185808695Y-140100674D01*
X185115628Y-140387043D01*
X184584907Y-140916839D01*
X184297328Y-141609405D01*
X184296674Y-142359305D01*
X183066674Y-142359305D01*
X183067326Y-141612695D01*
X182780957Y-140919628D01*
X182251161Y-140388907D01*
X181558595Y-140101328D01*
X180808695Y-140100674D01*
X180115628Y-140387043D01*
X179584907Y-140916839D01*
X179297328Y-141609405D01*
X179296674Y-142359305D01*
X178066674Y-142359305D01*
X178067326Y-141612695D01*
X177780957Y-140919628D01*
X177251161Y-140388907D01*
X177051499Y-140306000D01*
X177717079Y-140306000D01*
X177776436Y-140365461D01*
X178285298Y-140576759D01*
X178836285Y-140577240D01*
X179345515Y-140366831D01*
X179735461Y-139977564D01*
X179946759Y-139468702D01*
X179947240Y-138917715D01*
X179736831Y-138408485D01*
X179347564Y-138018539D01*
X178838702Y-137807241D01*
X178287715Y-137806760D01*
X177778485Y-138017169D01*
X177388539Y-138406436D01*
X177313977Y-138586000D01*
X177040444Y-138586000D01*
X177131737Y-138494866D01*
X177285824Y-138123783D01*
X177286175Y-137721980D01*
X177132736Y-137350628D01*
X176848866Y-137066263D01*
X176477783Y-136912176D01*
X176075980Y-136911825D01*
X175712528Y-137062000D01*
X173990000Y-137062000D01*
X173660892Y-137127464D01*
X173603392Y-137165884D01*
X173535980Y-137165825D01*
X173164628Y-137319264D01*
X172880263Y-137603134D01*
X172726176Y-137974217D01*
X172725825Y-138376020D01*
X172774478Y-138493769D01*
X172698485Y-138525169D01*
X172308539Y-138914436D01*
X172097241Y-139423298D01*
X172096760Y-139974285D01*
X154053303Y-139974285D01*
X154018736Y-139890628D01*
X153734866Y-139606263D01*
X153363783Y-139452176D01*
X152961980Y-139451825D01*
X152598528Y-139602000D01*
X151130000Y-139602000D01*
X150800892Y-139667464D01*
X150743392Y-139705884D01*
X150675980Y-139705825D01*
X150304628Y-139859264D01*
X150020263Y-140143134D01*
X149866176Y-140514217D01*
X149865825Y-140916020D01*
X106807000Y-140916020D01*
X106807000Y-139722661D01*
X132714758Y-139722661D01*
X132926990Y-140236303D01*
X133319630Y-140629629D01*
X133832900Y-140842757D01*
X134388661Y-140843242D01*
X134902303Y-140631010D01*
X135295629Y-140238370D01*
X135508757Y-139725100D01*
X135508759Y-139722661D01*
X137794758Y-139722661D01*
X138006990Y-140236303D01*
X138399630Y-140629629D01*
X138912900Y-140842757D01*
X139468661Y-140843242D01*
X139982303Y-140631010D01*
X140375629Y-140238370D01*
X140588757Y-139725100D01*
X140589242Y-139169339D01*
X140377010Y-138655697D01*
X139984370Y-138262371D01*
X139471100Y-138049243D01*
X138915339Y-138048758D01*
X138401697Y-138260990D01*
X138008371Y-138653630D01*
X137795243Y-139166900D01*
X137794758Y-139722661D01*
X135508759Y-139722661D01*
X135509242Y-139169339D01*
X135297010Y-138655697D01*
X134904370Y-138262371D01*
X134391100Y-138049243D01*
X133835339Y-138048758D01*
X133321697Y-138260990D01*
X132928371Y-138653630D01*
X132715243Y-139166900D01*
X132714758Y-139722661D01*
X106807000Y-139722661D01*
X106807000Y-137182661D01*
X135254758Y-137182661D01*
X135466990Y-137696303D01*
X135859630Y-138089629D01*
X136372900Y-138302757D01*
X136928661Y-138303242D01*
X137442303Y-138091010D01*
X137835629Y-137698370D01*
X137945286Y-137434285D01*
X144918760Y-137434285D01*
X145129169Y-137943515D01*
X145518436Y-138333461D01*
X146027298Y-138544759D01*
X146578285Y-138545240D01*
X146808094Y-138450285D01*
X164476760Y-138450285D01*
X164687169Y-138959515D01*
X165076436Y-139349461D01*
X165585298Y-139560759D01*
X166136285Y-139561240D01*
X166645515Y-139350831D01*
X167035461Y-138961564D01*
X167246759Y-138452702D01*
X167247148Y-138007076D01*
X169774224Y-135480000D01*
X172891521Y-135480000D01*
X173204436Y-135793461D01*
X173713298Y-136004759D01*
X174264285Y-136005240D01*
X174773515Y-135794831D01*
X175163461Y-135405564D01*
X175374759Y-134896702D01*
X175375240Y-134345715D01*
X175164831Y-133836485D01*
X174775564Y-133446539D01*
X174266702Y-133235241D01*
X173715715Y-133234760D01*
X173206485Y-133445169D01*
X172891105Y-133760000D01*
X169418000Y-133760000D01*
X169088892Y-133825464D01*
X168809888Y-134011888D01*
X166030629Y-136791147D01*
X165587715Y-136790760D01*
X165078485Y-137001169D01*
X164688539Y-137390436D01*
X164477241Y-137899298D01*
X164476760Y-138450285D01*
X146808094Y-138450285D01*
X147087515Y-138334831D01*
X147477461Y-137945564D01*
X147688759Y-137436702D01*
X147689240Y-136885715D01*
X147478831Y-136376485D01*
X147089564Y-135986539D01*
X146580702Y-135775241D01*
X146029715Y-135774760D01*
X145520485Y-135985169D01*
X145130539Y-136374436D01*
X144919241Y-136883298D01*
X144918760Y-137434285D01*
X137945286Y-137434285D01*
X138048757Y-137185100D01*
X138049242Y-136629339D01*
X137837010Y-136115697D01*
X137444370Y-135722371D01*
X136931100Y-135509243D01*
X136375339Y-135508758D01*
X135861697Y-135720990D01*
X135468371Y-136113630D01*
X135255243Y-136626900D01*
X135254758Y-137182661D01*
X106807000Y-137182661D01*
X106807000Y-134642661D01*
X132714758Y-134642661D01*
X132926990Y-135156303D01*
X133319630Y-135549629D01*
X133832900Y-135762757D01*
X134388661Y-135763242D01*
X134902303Y-135551010D01*
X135295629Y-135158370D01*
X135508757Y-134645100D01*
X135508759Y-134642661D01*
X137794758Y-134642661D01*
X138006990Y-135156303D01*
X138399630Y-135549629D01*
X138912900Y-135762757D01*
X139468661Y-135763242D01*
X139982303Y-135551010D01*
X140375629Y-135158370D01*
X140588757Y-134645100D01*
X140589242Y-134089339D01*
X140377010Y-133575697D01*
X139984370Y-133182371D01*
X139471100Y-132969243D01*
X138915339Y-132968758D01*
X138401697Y-133180990D01*
X138008371Y-133573630D01*
X137795243Y-134086900D01*
X137794758Y-134642661D01*
X135508759Y-134642661D01*
X135509242Y-134089339D01*
X135297010Y-133575697D01*
X134904370Y-133182371D01*
X134391100Y-132969243D01*
X133835339Y-132968758D01*
X133321697Y-133180990D01*
X132928371Y-133573630D01*
X132715243Y-134086900D01*
X132714758Y-134642661D01*
X106807000Y-134642661D01*
X106807000Y-128755001D01*
X149206894Y-128755001D01*
X149493214Y-129447951D01*
X150022921Y-129978582D01*
X150715369Y-130266112D01*
X151465141Y-130266766D01*
X152158091Y-129980446D01*
X152688722Y-129450739D01*
X152976252Y-128758291D01*
X152976254Y-128755001D01*
X155379094Y-128755001D01*
X155665414Y-129447951D01*
X156195121Y-129978582D01*
X156887569Y-130266112D01*
X157637341Y-130266766D01*
X157850463Y-130178706D01*
X186257139Y-130178706D01*
X186410578Y-130550058D01*
X186694448Y-130834423D01*
X187065531Y-130988510D01*
X187467334Y-130988861D01*
X187838686Y-130835422D01*
X188088355Y-130586187D01*
X192422752Y-130586187D01*
X192640757Y-131113800D01*
X193044077Y-131517824D01*
X193571309Y-131736750D01*
X194142187Y-131737248D01*
X194669800Y-131519243D01*
X195073824Y-131115923D01*
X195292750Y-130588691D01*
X195292752Y-130586187D01*
X199422752Y-130586187D01*
X199640757Y-131113800D01*
X200044077Y-131517824D01*
X200571309Y-131736750D01*
X201142187Y-131737248D01*
X201669800Y-131519243D01*
X202073824Y-131115923D01*
X202292750Y-130588691D01*
X202293248Y-130017813D01*
X202075243Y-129490200D01*
X201671923Y-129086176D01*
X201144691Y-128867250D01*
X200573813Y-128866752D01*
X200046200Y-129084757D01*
X199642176Y-129488077D01*
X199423250Y-130015309D01*
X199422752Y-130586187D01*
X195292752Y-130586187D01*
X195293248Y-130017813D01*
X195075243Y-129490200D01*
X194671923Y-129086176D01*
X194144691Y-128867250D01*
X193573813Y-128866752D01*
X193046200Y-129084757D01*
X192642176Y-129488077D01*
X192423250Y-130015309D01*
X192422752Y-130586187D01*
X188088355Y-130586187D01*
X188123051Y-130551552D01*
X188273860Y-130188364D01*
X188608980Y-129853244D01*
X188970058Y-129704050D01*
X189254423Y-129420180D01*
X189408510Y-129049097D01*
X189408861Y-128647294D01*
X189255422Y-128275942D01*
X188971552Y-127991577D01*
X188600469Y-127837490D01*
X188198666Y-127837139D01*
X187827314Y-127990578D01*
X187542949Y-128274448D01*
X187392140Y-128637636D01*
X187057020Y-128972756D01*
X186695942Y-129121950D01*
X186411577Y-129405820D01*
X186257490Y-129776903D01*
X186257139Y-130178706D01*
X157850463Y-130178706D01*
X158330291Y-129980446D01*
X158860922Y-129450739D01*
X159148452Y-128758291D01*
X159149106Y-128008519D01*
X158862786Y-127315569D01*
X158333079Y-126784938D01*
X158248232Y-126749706D01*
X189940139Y-126749706D01*
X190093578Y-127121058D01*
X190377448Y-127405423D01*
X190748531Y-127559510D01*
X191150334Y-127559861D01*
X191521686Y-127406422D01*
X191806051Y-127122552D01*
X191956860Y-126759364D01*
X192291980Y-126424244D01*
X192653058Y-126275050D01*
X192937423Y-125991180D01*
X193091510Y-125620097D01*
X193091861Y-125218294D01*
X192938422Y-124846942D01*
X192654552Y-124562577D01*
X192283469Y-124408490D01*
X191881666Y-124408139D01*
X191510314Y-124561578D01*
X191225949Y-124845448D01*
X191075140Y-125208636D01*
X190740020Y-125543756D01*
X190378942Y-125692950D01*
X190094577Y-125976820D01*
X189940490Y-126347903D01*
X189940139Y-126749706D01*
X158248232Y-126749706D01*
X157640631Y-126497408D01*
X156890859Y-126496754D01*
X156197909Y-126783074D01*
X155667278Y-127312781D01*
X155379748Y-128005229D01*
X155379094Y-128755001D01*
X152976254Y-128755001D01*
X152976906Y-128008519D01*
X152690586Y-127315569D01*
X152160879Y-126784938D01*
X151468431Y-126497408D01*
X150718659Y-126496754D01*
X150025709Y-126783074D01*
X149495078Y-127312781D01*
X149207548Y-128005229D01*
X149206894Y-128755001D01*
X106807000Y-128755001D01*
X106807000Y-125122801D01*
X144203094Y-125122801D01*
X144489414Y-125815751D01*
X145019121Y-126346382D01*
X145711569Y-126633912D01*
X146461341Y-126634566D01*
X147154291Y-126348246D01*
X147684922Y-125818539D01*
X147972452Y-125126091D01*
X147972454Y-125122801D01*
X160382894Y-125122801D01*
X160669214Y-125815751D01*
X161198921Y-126346382D01*
X161891369Y-126633912D01*
X162641141Y-126634566D01*
X163334091Y-126348246D01*
X163864722Y-125818539D01*
X164152252Y-125126091D01*
X164152906Y-124376319D01*
X163866586Y-123683369D01*
X163336879Y-123152738D01*
X162644431Y-122865208D01*
X161894659Y-122864554D01*
X161201709Y-123150874D01*
X160671078Y-123680581D01*
X160383548Y-124373029D01*
X160382894Y-125122801D01*
X147972454Y-125122801D01*
X147973106Y-124376319D01*
X147686786Y-123683369D01*
X147157079Y-123152738D01*
X146464631Y-122865208D01*
X145714859Y-122864554D01*
X145021909Y-123150874D01*
X144491278Y-123680581D01*
X144203748Y-124373029D01*
X144203094Y-125122801D01*
X106807000Y-125122801D01*
X106807000Y-120205089D01*
X143024537Y-120205089D01*
X143153745Y-120497859D01*
X143853903Y-120766071D01*
X144603404Y-120745928D01*
X145202295Y-120497859D01*
X145331503Y-120205089D01*
X144178020Y-119051605D01*
X143024537Y-120205089D01*
X106807000Y-120205089D01*
X106807000Y-118547883D01*
X142283949Y-118547883D01*
X142304092Y-119297384D01*
X142552161Y-119896275D01*
X142844931Y-120025483D01*
X143998415Y-118872000D01*
X144357625Y-118872000D01*
X145511109Y-120025483D01*
X145803879Y-119896275D01*
X146015408Y-119344085D01*
X151793797Y-119344085D01*
X152155943Y-120220544D01*
X152825929Y-120891700D01*
X153701755Y-121255375D01*
X154650085Y-121256203D01*
X155526544Y-120894057D01*
X156197700Y-120224071D01*
X156561375Y-119348245D01*
X156562203Y-118399915D01*
X156200057Y-117523456D01*
X155530071Y-116852300D01*
X154654245Y-116488625D01*
X153705915Y-116487797D01*
X152829456Y-116849943D01*
X152158300Y-117519929D01*
X151794625Y-118395755D01*
X151793797Y-119344085D01*
X146015408Y-119344085D01*
X146072091Y-119196117D01*
X146051948Y-118446616D01*
X145803879Y-117847725D01*
X145511109Y-117718517D01*
X144357625Y-118872000D01*
X143998415Y-118872000D01*
X142844931Y-117718517D01*
X142552161Y-117847725D01*
X142283949Y-118547883D01*
X106807000Y-118547883D01*
X106807000Y-117538911D01*
X143024537Y-117538911D01*
X144178020Y-118692395D01*
X145331503Y-117538911D01*
X145202295Y-117246141D01*
X144502137Y-116977929D01*
X143752636Y-116998072D01*
X143153745Y-117246141D01*
X143024537Y-117538911D01*
X106807000Y-117538911D01*
X106807000Y-115989187D01*
X108474752Y-115989187D01*
X108692757Y-116516800D01*
X109096077Y-116920824D01*
X109623309Y-117139750D01*
X110194187Y-117140248D01*
X110721800Y-116922243D01*
X111125824Y-116518923D01*
X111344750Y-115991691D01*
X111344752Y-115989187D01*
X115474752Y-115989187D01*
X115692757Y-116516800D01*
X116096077Y-116920824D01*
X116623309Y-117139750D01*
X117194187Y-117140248D01*
X117721800Y-116922243D01*
X118125824Y-116518923D01*
X118344750Y-115991691D01*
X118344880Y-115842000D01*
X194932000Y-115842000D01*
X194932000Y-116967000D01*
X195556950Y-116967000D01*
X195556950Y-117221000D01*
X194932000Y-117221000D01*
X194932000Y-118346000D01*
X195114573Y-119009856D01*
X195537295Y-119553311D01*
X196135810Y-119893629D01*
X196291957Y-119932933D01*
X196565000Y-119815206D01*
X196565000Y-119229050D01*
X196819000Y-119229050D01*
X196819000Y-119815206D01*
X197092043Y-119932933D01*
X197248190Y-119893629D01*
X197846705Y-119553311D01*
X198269427Y-119009856D01*
X198452000Y-118346000D01*
X198452000Y-117221000D01*
X197827050Y-117221000D01*
X197827050Y-116967000D01*
X198452000Y-116967000D01*
X198452000Y-115842000D01*
X198269427Y-115178144D01*
X197846705Y-114634689D01*
X197248190Y-114294371D01*
X197092043Y-114255067D01*
X196819000Y-114372794D01*
X196819000Y-114958950D01*
X196565000Y-114958950D01*
X196565000Y-114372794D01*
X196291957Y-114255067D01*
X196135810Y-114294371D01*
X195537295Y-114634689D01*
X195114573Y-115178144D01*
X194932000Y-115842000D01*
X118344880Y-115842000D01*
X118345248Y-115420813D01*
X118127243Y-114893200D01*
X117723923Y-114489176D01*
X117196691Y-114270250D01*
X116625813Y-114269752D01*
X116098200Y-114487757D01*
X115694176Y-114891077D01*
X115475250Y-115418309D01*
X115474752Y-115989187D01*
X111344752Y-115989187D01*
X111345248Y-115420813D01*
X111127243Y-114893200D01*
X110723923Y-114489176D01*
X110196691Y-114270250D01*
X109625813Y-114269752D01*
X109098200Y-114487757D01*
X108694176Y-114891077D01*
X108475250Y-115418309D01*
X108474752Y-115989187D01*
X106807000Y-115989187D01*
X106807000Y-108112020D01*
X143007825Y-108112020D01*
X143158000Y-108475472D01*
X143158000Y-110236000D01*
X143223464Y-110565108D01*
X143292811Y-110668893D01*
X143409888Y-110844112D01*
X143774070Y-111208294D01*
X143923264Y-111569372D01*
X144207134Y-111853737D01*
X144474893Y-111964920D01*
X144203748Y-112617909D01*
X144203094Y-113367681D01*
X144489414Y-114060631D01*
X145019121Y-114591262D01*
X145711569Y-114878792D01*
X146461341Y-114879446D01*
X147154291Y-114593126D01*
X147684922Y-114063419D01*
X147972452Y-113370971D01*
X147972454Y-113367681D01*
X160382894Y-113367681D01*
X160669214Y-114060631D01*
X161198921Y-114591262D01*
X161891369Y-114878792D01*
X162641141Y-114879446D01*
X163334091Y-114593126D01*
X163864722Y-114063419D01*
X164152252Y-113370971D01*
X164152906Y-112621199D01*
X163866586Y-111928249D01*
X163336879Y-111397618D01*
X162644431Y-111110088D01*
X161894659Y-111109434D01*
X161201709Y-111395754D01*
X160671078Y-111925461D01*
X160383548Y-112617909D01*
X160382894Y-113367681D01*
X147972454Y-113367681D01*
X147973106Y-112621199D01*
X147686786Y-111928249D01*
X147157079Y-111397618D01*
X146464631Y-111110088D01*
X145789903Y-111109499D01*
X145790175Y-110797980D01*
X145636736Y-110426628D01*
X145352866Y-110142263D01*
X144989678Y-109991454D01*
X144878000Y-109879776D01*
X144878000Y-109735481D01*
X149206894Y-109735481D01*
X149493214Y-110428431D01*
X150022921Y-110959062D01*
X150715369Y-111246592D01*
X151465141Y-111247246D01*
X152158091Y-110960926D01*
X152688722Y-110431219D01*
X152976252Y-109738771D01*
X152976254Y-109735481D01*
X155379094Y-109735481D01*
X155665414Y-110428431D01*
X156195121Y-110959062D01*
X156887569Y-111246592D01*
X157637341Y-111247246D01*
X158330291Y-110960926D01*
X158860922Y-110431219D01*
X159148452Y-109738771D01*
X159149106Y-108988999D01*
X158862786Y-108296049D01*
X158333079Y-107765418D01*
X157640631Y-107477888D01*
X156890859Y-107477234D01*
X156197909Y-107763554D01*
X155667278Y-108293261D01*
X155379748Y-108985709D01*
X155379094Y-109735481D01*
X152976254Y-109735481D01*
X152976906Y-108988999D01*
X152690586Y-108296049D01*
X152160879Y-107765418D01*
X151468431Y-107477888D01*
X150718659Y-107477234D01*
X150025709Y-107763554D01*
X149495078Y-108293261D01*
X149207548Y-108985709D01*
X149206894Y-109735481D01*
X144878000Y-109735481D01*
X144878000Y-108474600D01*
X145027824Y-108113783D01*
X145028175Y-107711980D01*
X144874736Y-107340628D01*
X144590866Y-107056263D01*
X144219783Y-106902176D01*
X143817980Y-106901825D01*
X143446628Y-107055264D01*
X143162263Y-107339134D01*
X143008176Y-107710217D01*
X143007825Y-108112020D01*
X106807000Y-108112020D01*
X106807000Y-104670661D01*
X132460758Y-104670661D01*
X132672990Y-105184303D01*
X133065630Y-105577629D01*
X133578900Y-105790757D01*
X134134661Y-105791242D01*
X134648303Y-105579010D01*
X135041629Y-105186370D01*
X135254757Y-104673100D01*
X135254759Y-104670661D01*
X137540758Y-104670661D01*
X137752990Y-105184303D01*
X138145630Y-105577629D01*
X138658900Y-105790757D01*
X139214661Y-105791242D01*
X139728303Y-105579010D01*
X140121629Y-105186370D01*
X140334757Y-104673100D01*
X140334838Y-104579167D01*
X166958838Y-104579167D01*
X167100883Y-104922943D01*
X167363673Y-105186192D01*
X167707201Y-105328838D01*
X168079167Y-105329162D01*
X168422943Y-105187117D01*
X168686192Y-104924327D01*
X168761672Y-104742552D01*
X170028224Y-103476000D01*
X172974000Y-103476000D01*
X173303108Y-103410536D01*
X173582112Y-103224112D01*
X174084585Y-102721639D01*
X174264943Y-102647117D01*
X174528192Y-102384327D01*
X174670838Y-102040799D01*
X174671162Y-101668833D01*
X174529117Y-101325057D01*
X174266327Y-101061808D01*
X173922799Y-100919162D01*
X173550833Y-100918838D01*
X173207057Y-101060883D01*
X172943808Y-101323673D01*
X172868328Y-101505448D01*
X172617776Y-101756000D01*
X169672000Y-101756000D01*
X169342892Y-101821464D01*
X169144370Y-101954112D01*
X169063888Y-102007888D01*
X167545415Y-103526361D01*
X167365057Y-103600883D01*
X167101808Y-103863673D01*
X166959162Y-104207201D01*
X166958838Y-104579167D01*
X140334838Y-104579167D01*
X140335242Y-104117339D01*
X140123010Y-103603697D01*
X139730370Y-103210371D01*
X139392367Y-103070020D01*
X143515825Y-103070020D01*
X143669264Y-103441372D01*
X143953134Y-103725737D01*
X144324217Y-103879824D01*
X144726020Y-103880175D01*
X145097372Y-103726736D01*
X145381737Y-103442866D01*
X145535824Y-103071783D01*
X145535986Y-102886218D01*
X145773298Y-102984759D01*
X146324285Y-102985240D01*
X146833515Y-102774831D01*
X147223461Y-102385564D01*
X147434759Y-101876702D01*
X147435240Y-101325715D01*
X147224831Y-100816485D01*
X146835564Y-100426539D01*
X146326702Y-100215241D01*
X145775715Y-100214760D01*
X145386000Y-100375787D01*
X145386000Y-100178224D01*
X145811057Y-99753167D01*
X148162838Y-99753167D01*
X148304883Y-100096943D01*
X148567673Y-100360192D01*
X148749448Y-100435672D01*
X150008361Y-101694585D01*
X150082883Y-101874943D01*
X150345673Y-102138192D01*
X150689201Y-102280838D01*
X151061167Y-102281162D01*
X151404943Y-102139117D01*
X151668192Y-101876327D01*
X151810838Y-101532799D01*
X151811162Y-101160833D01*
X151669117Y-100817057D01*
X151406327Y-100553808D01*
X151224552Y-100478328D01*
X149965639Y-99219415D01*
X149891117Y-99039057D01*
X149628327Y-98775808D01*
X149284799Y-98633162D01*
X148912833Y-98632838D01*
X148569057Y-98774883D01*
X148305808Y-99037673D01*
X148163162Y-99381201D01*
X148162838Y-99753167D01*
X145811057Y-99753167D01*
X146514294Y-99049930D01*
X146875372Y-98900736D01*
X147159737Y-98616866D01*
X147313824Y-98245783D01*
X147314175Y-97843980D01*
X147160736Y-97472628D01*
X146876866Y-97188263D01*
X146505783Y-97034176D01*
X146103980Y-97033825D01*
X145732628Y-97187264D01*
X145448263Y-97471134D01*
X145297454Y-97834322D01*
X143917888Y-99213888D01*
X143731464Y-99492892D01*
X143666000Y-99822000D01*
X143666000Y-102307400D01*
X143516176Y-102668217D01*
X143515825Y-103070020D01*
X139392367Y-103070020D01*
X139217100Y-102997243D01*
X138661339Y-102996758D01*
X138147697Y-103208990D01*
X137754371Y-103601630D01*
X137541243Y-104114900D01*
X137540758Y-104670661D01*
X135254759Y-104670661D01*
X135255242Y-104117339D01*
X135043010Y-103603697D01*
X134650370Y-103210371D01*
X134137100Y-102997243D01*
X133581339Y-102996758D01*
X133067697Y-103208990D01*
X132674371Y-103601630D01*
X132461243Y-104114900D01*
X132460758Y-104670661D01*
X106807000Y-104670661D01*
X106807000Y-102130661D01*
X135000758Y-102130661D01*
X135212990Y-102644303D01*
X135605630Y-103037629D01*
X136118900Y-103250757D01*
X136674661Y-103251242D01*
X137188303Y-103039010D01*
X137581629Y-102646370D01*
X137794757Y-102133100D01*
X137795242Y-101577339D01*
X137583010Y-101063697D01*
X137190370Y-100670371D01*
X136677100Y-100457243D01*
X136121339Y-100456758D01*
X135607697Y-100668990D01*
X135214371Y-101061630D01*
X135001243Y-101574900D01*
X135000758Y-102130661D01*
X106807000Y-102130661D01*
X106807000Y-99590661D01*
X132460758Y-99590661D01*
X132672990Y-100104303D01*
X133065630Y-100497629D01*
X133578900Y-100710757D01*
X134134661Y-100711242D01*
X134648303Y-100499010D01*
X135041629Y-100106370D01*
X135254757Y-99593100D01*
X135254759Y-99590661D01*
X137540758Y-99590661D01*
X137752990Y-100104303D01*
X138145630Y-100497629D01*
X138658900Y-100710757D01*
X139214661Y-100711242D01*
X139728303Y-100499010D01*
X140121629Y-100106370D01*
X140334757Y-99593100D01*
X140335242Y-99037339D01*
X140123010Y-98523697D01*
X139730370Y-98130371D01*
X139217100Y-97917243D01*
X138661339Y-97916758D01*
X138147697Y-98128990D01*
X137754371Y-98521630D01*
X137541243Y-99034900D01*
X137540758Y-99590661D01*
X135254759Y-99590661D01*
X135255242Y-99037339D01*
X135043010Y-98523697D01*
X134650370Y-98130371D01*
X134137100Y-97917243D01*
X133581339Y-97916758D01*
X133067697Y-98128990D01*
X132674371Y-98521630D01*
X132461243Y-99034900D01*
X132460758Y-99590661D01*
X106807000Y-99590661D01*
X106807000Y-96893305D01*
X173454674Y-96893305D01*
X173741043Y-97586372D01*
X174270839Y-98117093D01*
X174963405Y-98404672D01*
X175713305Y-98405326D01*
X176163792Y-98219189D01*
X176103162Y-98365201D01*
X176102838Y-98737167D01*
X176244883Y-99080943D01*
X176507673Y-99344192D01*
X176851201Y-99486838D01*
X177223167Y-99487162D01*
X177405073Y-99412000D01*
X183539776Y-99412000D01*
X184298361Y-100170585D01*
X184372883Y-100350943D01*
X184635673Y-100614192D01*
X184979201Y-100756838D01*
X185351167Y-100757162D01*
X185694943Y-100615117D01*
X185958192Y-100352327D01*
X186100838Y-100008799D01*
X186101162Y-99636833D01*
X185959117Y-99293057D01*
X185696327Y-99029808D01*
X185514552Y-98954328D01*
X184964897Y-98404673D01*
X185713305Y-98405326D01*
X186406372Y-98118957D01*
X186937093Y-97589161D01*
X187224672Y-96896595D01*
X187225326Y-96146695D01*
X186938957Y-95453628D01*
X186409161Y-94922907D01*
X185716595Y-94635328D01*
X184966695Y-94634674D01*
X184273628Y-94921043D01*
X183742907Y-95450839D01*
X183455328Y-96143405D01*
X183454674Y-96893305D01*
X183741043Y-97586372D01*
X183846487Y-97692000D01*
X181834074Y-97692000D01*
X181937093Y-97589161D01*
X182224672Y-96896595D01*
X182225326Y-96146695D01*
X181938957Y-95453628D01*
X181409161Y-94922907D01*
X180716595Y-94635328D01*
X179966695Y-94634674D01*
X179273628Y-94921043D01*
X178742907Y-95450839D01*
X178455328Y-96143405D01*
X178454674Y-96893305D01*
X178741043Y-97586372D01*
X178846487Y-97692000D01*
X177405028Y-97692000D01*
X177224799Y-97617162D01*
X176909318Y-97616887D01*
X176937093Y-97589161D01*
X177224672Y-96896595D01*
X177225326Y-96146695D01*
X176938957Y-95453628D01*
X176409161Y-94922907D01*
X175716595Y-94635328D01*
X174966695Y-94634674D01*
X174273628Y-94921043D01*
X173742907Y-95450839D01*
X173455328Y-96143405D01*
X173454674Y-96893305D01*
X106807000Y-96893305D01*
X106807000Y-93429360D01*
X108922391Y-93429360D01*
X108927670Y-94557181D01*
X109349112Y-95574632D01*
X109740618Y-95819777D01*
X109807049Y-95753346D01*
X109986498Y-95933107D01*
X109920223Y-95999382D01*
X110165368Y-96390888D01*
X111209360Y-96817609D01*
X112337181Y-96812330D01*
X113354632Y-96390888D01*
X113599777Y-95999382D01*
X113533346Y-95932951D01*
X113713107Y-95753502D01*
X113779382Y-95819777D01*
X114170888Y-95574632D01*
X114597609Y-94530640D01*
X114592455Y-93429360D01*
X192742391Y-93429360D01*
X192747670Y-94557181D01*
X193169112Y-95574632D01*
X193560618Y-95819777D01*
X193627049Y-95753346D01*
X193806498Y-95933107D01*
X193740223Y-95999382D01*
X193985368Y-96390888D01*
X195029360Y-96817609D01*
X196157181Y-96812330D01*
X197174632Y-96390888D01*
X197419777Y-95999382D01*
X197353346Y-95932951D01*
X197533107Y-95753502D01*
X197599382Y-95819777D01*
X197990888Y-95574632D01*
X198417609Y-94530640D01*
X198412330Y-93402819D01*
X197990888Y-92385368D01*
X197599382Y-92140223D01*
X197532951Y-92206654D01*
X197353502Y-92026893D01*
X197419777Y-91960618D01*
X197174632Y-91569112D01*
X196130640Y-91142391D01*
X195002819Y-91147670D01*
X193985368Y-91569112D01*
X193740223Y-91960618D01*
X193806654Y-92027049D01*
X193626893Y-92206498D01*
X193560618Y-92140223D01*
X193169112Y-92385368D01*
X192742391Y-93429360D01*
X114592455Y-93429360D01*
X114592330Y-93402819D01*
X114170888Y-92385368D01*
X113779382Y-92140223D01*
X113712951Y-92206654D01*
X113533502Y-92026893D01*
X113599777Y-91960618D01*
X113354632Y-91569112D01*
X112310640Y-91142391D01*
X111182819Y-91147670D01*
X110165368Y-91569112D01*
X109920223Y-91960618D01*
X109986654Y-92027049D01*
X109806893Y-92206498D01*
X109740618Y-92140223D01*
X109349112Y-92385368D01*
X108922391Y-93429360D01*
X106807000Y-93429360D01*
X106807000Y-90932000D01*
X203708000Y-90932000D01*
X203708000Y-114237943D01*
X203708000Y-114237943D01*
G37*
X203708000Y-114237943D02*
X203413358Y-114041069D01*
X202692000Y-113897582D01*
X201970642Y-114041069D01*
X201359104Y-114449686D01*
X200950487Y-115061224D01*
X200807000Y-115782582D01*
X200807000Y-118405418D01*
X200950487Y-119126776D01*
X201359104Y-119738314D01*
X201970642Y-120146931D01*
X202692000Y-120290418D01*
X203413358Y-120146931D01*
X203708000Y-119950057D01*
X203708000Y-147193000D01*
X197169533Y-147193000D01*
X197174632Y-147190888D01*
X197419777Y-146799382D01*
X197353346Y-146732951D01*
X197533107Y-146553502D01*
X197599382Y-146619777D01*
X197990888Y-146374632D01*
X198417609Y-145330640D01*
X198412330Y-144202819D01*
X197990888Y-143185368D01*
X197599382Y-142940223D01*
X197532951Y-143006654D01*
X197353502Y-142826893D01*
X197419777Y-142760618D01*
X197174632Y-142369112D01*
X196130640Y-141942391D01*
X195002819Y-141947670D01*
X193985368Y-142369112D01*
X193740223Y-142760618D01*
X193806654Y-142827049D01*
X193626893Y-143006498D01*
X193560618Y-142940223D01*
X193169112Y-143185368D01*
X192742391Y-144229360D01*
X192747670Y-145357181D01*
X193169112Y-146374632D01*
X193560618Y-146619777D01*
X193627049Y-146553346D01*
X193806498Y-146733107D01*
X193740223Y-146799382D01*
X193985368Y-147190888D01*
X193990535Y-147193000D01*
X113349533Y-147193000D01*
X113354632Y-147190888D01*
X113599777Y-146799382D01*
X113533346Y-146732951D01*
X113713107Y-146553502D01*
X113779382Y-146619777D01*
X114170888Y-146374632D01*
X114597609Y-145330640D01*
X114592330Y-144202819D01*
X114170888Y-143185368D01*
X113779382Y-142940223D01*
X113712951Y-143006654D01*
X113533502Y-142826893D01*
X113599777Y-142760618D01*
X113354632Y-142369112D01*
X112310640Y-141942391D01*
X111182819Y-141947670D01*
X110165368Y-142369112D01*
X109920223Y-142760618D01*
X109986654Y-142827049D01*
X109806893Y-143006498D01*
X109740618Y-142940223D01*
X109349112Y-143185368D01*
X108922391Y-144229360D01*
X108927670Y-145357181D01*
X109349112Y-146374632D01*
X109740618Y-146619777D01*
X109807049Y-146553346D01*
X109986498Y-146733107D01*
X109920223Y-146799382D01*
X110165368Y-147190888D01*
X110170535Y-147193000D01*
X106807000Y-147193000D01*
X106807000Y-140916020D01*
X149865825Y-140916020D01*
X150019264Y-141287372D01*
X150303134Y-141571737D01*
X150674217Y-141725824D01*
X151076020Y-141726175D01*
X151447372Y-141572736D01*
X151698545Y-141322000D01*
X152599400Y-141322000D01*
X152960217Y-141471824D01*
X153362020Y-141472175D01*
X153733372Y-141318736D01*
X154017737Y-141034866D01*
X154171824Y-140663783D01*
X154172175Y-140261980D01*
X154053303Y-139974285D01*
X172096760Y-139974285D01*
X172307169Y-140483515D01*
X172696436Y-140873461D01*
X173205298Y-141084759D01*
X173756285Y-141085240D01*
X174265515Y-140874831D01*
X174655461Y-140485564D01*
X174730023Y-140306000D01*
X175311767Y-140306000D01*
X175115628Y-140387043D01*
X174584907Y-140916839D01*
X174297328Y-141609405D01*
X174296674Y-142359305D01*
X174583043Y-143052372D01*
X175112839Y-143583093D01*
X175805405Y-143870672D01*
X176555305Y-143871326D01*
X177248372Y-143584957D01*
X177779093Y-143055161D01*
X178066672Y-142362595D01*
X178066674Y-142359305D01*
X179296674Y-142359305D01*
X179583043Y-143052372D01*
X180112839Y-143583093D01*
X180805405Y-143870672D01*
X181555305Y-143871326D01*
X182248372Y-143584957D01*
X182779093Y-143055161D01*
X183066672Y-142362595D01*
X183066674Y-142359305D01*
X184296674Y-142359305D01*
X184583043Y-143052372D01*
X185112839Y-143583093D01*
X185805405Y-143870672D01*
X186555305Y-143871326D01*
X187248372Y-143584957D01*
X187779093Y-143055161D01*
X188066672Y-142362595D01*
X188067326Y-141612695D01*
X187780957Y-140919628D01*
X187251161Y-140388907D01*
X186558595Y-140101328D01*
X185808695Y-140100674D01*
X185115628Y-140387043D01*
X184584907Y-140916839D01*
X184297328Y-141609405D01*
X184296674Y-142359305D01*
X183066674Y-142359305D01*
X183067326Y-141612695D01*
X182780957Y-140919628D01*
X182251161Y-140388907D01*
X181558595Y-140101328D01*
X180808695Y-140100674D01*
X180115628Y-140387043D01*
X179584907Y-140916839D01*
X179297328Y-141609405D01*
X179296674Y-142359305D01*
X178066674Y-142359305D01*
X178067326Y-141612695D01*
X177780957Y-140919628D01*
X177251161Y-140388907D01*
X177051499Y-140306000D01*
X177717079Y-140306000D01*
X177776436Y-140365461D01*
X178285298Y-140576759D01*
X178836285Y-140577240D01*
X179345515Y-140366831D01*
X179735461Y-139977564D01*
X179946759Y-139468702D01*
X179947240Y-138917715D01*
X179736831Y-138408485D01*
X179347564Y-138018539D01*
X178838702Y-137807241D01*
X178287715Y-137806760D01*
X177778485Y-138017169D01*
X177388539Y-138406436D01*
X177313977Y-138586000D01*
X177040444Y-138586000D01*
X177131737Y-138494866D01*
X177285824Y-138123783D01*
X177286175Y-137721980D01*
X177132736Y-137350628D01*
X176848866Y-137066263D01*
X176477783Y-136912176D01*
X176075980Y-136911825D01*
X175712528Y-137062000D01*
X173990000Y-137062000D01*
X173660892Y-137127464D01*
X173603392Y-137165884D01*
X173535980Y-137165825D01*
X173164628Y-137319264D01*
X172880263Y-137603134D01*
X172726176Y-137974217D01*
X172725825Y-138376020D01*
X172774478Y-138493769D01*
X172698485Y-138525169D01*
X172308539Y-138914436D01*
X172097241Y-139423298D01*
X172096760Y-139974285D01*
X154053303Y-139974285D01*
X154018736Y-139890628D01*
X153734866Y-139606263D01*
X153363783Y-139452176D01*
X152961980Y-139451825D01*
X152598528Y-139602000D01*
X151130000Y-139602000D01*
X150800892Y-139667464D01*
X150743392Y-139705884D01*
X150675980Y-139705825D01*
X150304628Y-139859264D01*
X150020263Y-140143134D01*
X149866176Y-140514217D01*
X149865825Y-140916020D01*
X106807000Y-140916020D01*
X106807000Y-139722661D01*
X132714758Y-139722661D01*
X132926990Y-140236303D01*
X133319630Y-140629629D01*
X133832900Y-140842757D01*
X134388661Y-140843242D01*
X134902303Y-140631010D01*
X135295629Y-140238370D01*
X135508757Y-139725100D01*
X135508759Y-139722661D01*
X137794758Y-139722661D01*
X138006990Y-140236303D01*
X138399630Y-140629629D01*
X138912900Y-140842757D01*
X139468661Y-140843242D01*
X139982303Y-140631010D01*
X140375629Y-140238370D01*
X140588757Y-139725100D01*
X140589242Y-139169339D01*
X140377010Y-138655697D01*
X139984370Y-138262371D01*
X139471100Y-138049243D01*
X138915339Y-138048758D01*
X138401697Y-138260990D01*
X138008371Y-138653630D01*
X137795243Y-139166900D01*
X137794758Y-139722661D01*
X135508759Y-139722661D01*
X135509242Y-139169339D01*
X135297010Y-138655697D01*
X134904370Y-138262371D01*
X134391100Y-138049243D01*
X133835339Y-138048758D01*
X133321697Y-138260990D01*
X132928371Y-138653630D01*
X132715243Y-139166900D01*
X132714758Y-139722661D01*
X106807000Y-139722661D01*
X106807000Y-137182661D01*
X135254758Y-137182661D01*
X135466990Y-137696303D01*
X135859630Y-138089629D01*
X136372900Y-138302757D01*
X136928661Y-138303242D01*
X137442303Y-138091010D01*
X137835629Y-137698370D01*
X137945286Y-137434285D01*
X144918760Y-137434285D01*
X145129169Y-137943515D01*
X145518436Y-138333461D01*
X146027298Y-138544759D01*
X146578285Y-138545240D01*
X146808094Y-138450285D01*
X164476760Y-138450285D01*
X164687169Y-138959515D01*
X165076436Y-139349461D01*
X165585298Y-139560759D01*
X166136285Y-139561240D01*
X166645515Y-139350831D01*
X167035461Y-138961564D01*
X167246759Y-138452702D01*
X167247148Y-138007076D01*
X169774224Y-135480000D01*
X172891521Y-135480000D01*
X173204436Y-135793461D01*
X173713298Y-136004759D01*
X174264285Y-136005240D01*
X174773515Y-135794831D01*
X175163461Y-135405564D01*
X175374759Y-134896702D01*
X175375240Y-134345715D01*
X175164831Y-133836485D01*
X174775564Y-133446539D01*
X174266702Y-133235241D01*
X173715715Y-133234760D01*
X173206485Y-133445169D01*
X172891105Y-133760000D01*
X169418000Y-133760000D01*
X169088892Y-133825464D01*
X168809888Y-134011888D01*
X166030629Y-136791147D01*
X165587715Y-136790760D01*
X165078485Y-137001169D01*
X164688539Y-137390436D01*
X164477241Y-137899298D01*
X164476760Y-138450285D01*
X146808094Y-138450285D01*
X147087515Y-138334831D01*
X147477461Y-137945564D01*
X147688759Y-137436702D01*
X147689240Y-136885715D01*
X147478831Y-136376485D01*
X147089564Y-135986539D01*
X146580702Y-135775241D01*
X146029715Y-135774760D01*
X145520485Y-135985169D01*
X145130539Y-136374436D01*
X144919241Y-136883298D01*
X144918760Y-137434285D01*
X137945286Y-137434285D01*
X138048757Y-137185100D01*
X138049242Y-136629339D01*
X137837010Y-136115697D01*
X137444370Y-135722371D01*
X136931100Y-135509243D01*
X136375339Y-135508758D01*
X135861697Y-135720990D01*
X135468371Y-136113630D01*
X135255243Y-136626900D01*
X135254758Y-137182661D01*
X106807000Y-137182661D01*
X106807000Y-134642661D01*
X132714758Y-134642661D01*
X132926990Y-135156303D01*
X133319630Y-135549629D01*
X133832900Y-135762757D01*
X134388661Y-135763242D01*
X134902303Y-135551010D01*
X135295629Y-135158370D01*
X135508757Y-134645100D01*
X135508759Y-134642661D01*
X137794758Y-134642661D01*
X138006990Y-135156303D01*
X138399630Y-135549629D01*
X138912900Y-135762757D01*
X139468661Y-135763242D01*
X139982303Y-135551010D01*
X140375629Y-135158370D01*
X140588757Y-134645100D01*
X140589242Y-134089339D01*
X140377010Y-133575697D01*
X139984370Y-133182371D01*
X139471100Y-132969243D01*
X138915339Y-132968758D01*
X138401697Y-133180990D01*
X138008371Y-133573630D01*
X137795243Y-134086900D01*
X137794758Y-134642661D01*
X135508759Y-134642661D01*
X135509242Y-134089339D01*
X135297010Y-133575697D01*
X134904370Y-133182371D01*
X134391100Y-132969243D01*
X133835339Y-132968758D01*
X133321697Y-133180990D01*
X132928371Y-133573630D01*
X132715243Y-134086900D01*
X132714758Y-134642661D01*
X106807000Y-134642661D01*
X106807000Y-128755001D01*
X149206894Y-128755001D01*
X149493214Y-129447951D01*
X150022921Y-129978582D01*
X150715369Y-130266112D01*
X151465141Y-130266766D01*
X152158091Y-129980446D01*
X152688722Y-129450739D01*
X152976252Y-128758291D01*
X152976254Y-128755001D01*
X155379094Y-128755001D01*
X155665414Y-129447951D01*
X156195121Y-129978582D01*
X156887569Y-130266112D01*
X157637341Y-130266766D01*
X157850463Y-130178706D01*
X186257139Y-130178706D01*
X186410578Y-130550058D01*
X186694448Y-130834423D01*
X187065531Y-130988510D01*
X187467334Y-130988861D01*
X187838686Y-130835422D01*
X188088355Y-130586187D01*
X192422752Y-130586187D01*
X192640757Y-131113800D01*
X193044077Y-131517824D01*
X193571309Y-131736750D01*
X194142187Y-131737248D01*
X194669800Y-131519243D01*
X195073824Y-131115923D01*
X195292750Y-130588691D01*
X195292752Y-130586187D01*
X199422752Y-130586187D01*
X199640757Y-131113800D01*
X200044077Y-131517824D01*
X200571309Y-131736750D01*
X201142187Y-131737248D01*
X201669800Y-131519243D01*
X202073824Y-131115923D01*
X202292750Y-130588691D01*
X202293248Y-130017813D01*
X202075243Y-129490200D01*
X201671923Y-129086176D01*
X201144691Y-128867250D01*
X200573813Y-128866752D01*
X200046200Y-129084757D01*
X199642176Y-129488077D01*
X199423250Y-130015309D01*
X199422752Y-130586187D01*
X195292752Y-130586187D01*
X195293248Y-130017813D01*
X195075243Y-129490200D01*
X194671923Y-129086176D01*
X194144691Y-128867250D01*
X193573813Y-128866752D01*
X193046200Y-129084757D01*
X192642176Y-129488077D01*
X192423250Y-130015309D01*
X192422752Y-130586187D01*
X188088355Y-130586187D01*
X188123051Y-130551552D01*
X188273860Y-130188364D01*
X188608980Y-129853244D01*
X188970058Y-129704050D01*
X189254423Y-129420180D01*
X189408510Y-129049097D01*
X189408861Y-128647294D01*
X189255422Y-128275942D01*
X188971552Y-127991577D01*
X188600469Y-127837490D01*
X188198666Y-127837139D01*
X187827314Y-127990578D01*
X187542949Y-128274448D01*
X187392140Y-128637636D01*
X187057020Y-128972756D01*
X186695942Y-129121950D01*
X186411577Y-129405820D01*
X186257490Y-129776903D01*
X186257139Y-130178706D01*
X157850463Y-130178706D01*
X158330291Y-129980446D01*
X158860922Y-129450739D01*
X159148452Y-128758291D01*
X159149106Y-128008519D01*
X158862786Y-127315569D01*
X158333079Y-126784938D01*
X158248232Y-126749706D01*
X189940139Y-126749706D01*
X190093578Y-127121058D01*
X190377448Y-127405423D01*
X190748531Y-127559510D01*
X191150334Y-127559861D01*
X191521686Y-127406422D01*
X191806051Y-127122552D01*
X191956860Y-126759364D01*
X192291980Y-126424244D01*
X192653058Y-126275050D01*
X192937423Y-125991180D01*
X193091510Y-125620097D01*
X193091861Y-125218294D01*
X192938422Y-124846942D01*
X192654552Y-124562577D01*
X192283469Y-124408490D01*
X191881666Y-124408139D01*
X191510314Y-124561578D01*
X191225949Y-124845448D01*
X191075140Y-125208636D01*
X190740020Y-125543756D01*
X190378942Y-125692950D01*
X190094577Y-125976820D01*
X189940490Y-126347903D01*
X189940139Y-126749706D01*
X158248232Y-126749706D01*
X157640631Y-126497408D01*
X156890859Y-126496754D01*
X156197909Y-126783074D01*
X155667278Y-127312781D01*
X155379748Y-128005229D01*
X155379094Y-128755001D01*
X152976254Y-128755001D01*
X152976906Y-128008519D01*
X152690586Y-127315569D01*
X152160879Y-126784938D01*
X151468431Y-126497408D01*
X150718659Y-126496754D01*
X150025709Y-126783074D01*
X149495078Y-127312781D01*
X149207548Y-128005229D01*
X149206894Y-128755001D01*
X106807000Y-128755001D01*
X106807000Y-125122801D01*
X144203094Y-125122801D01*
X144489414Y-125815751D01*
X145019121Y-126346382D01*
X145711569Y-126633912D01*
X146461341Y-126634566D01*
X147154291Y-126348246D01*
X147684922Y-125818539D01*
X147972452Y-125126091D01*
X147972454Y-125122801D01*
X160382894Y-125122801D01*
X160669214Y-125815751D01*
X161198921Y-126346382D01*
X161891369Y-126633912D01*
X162641141Y-126634566D01*
X163334091Y-126348246D01*
X163864722Y-125818539D01*
X164152252Y-125126091D01*
X164152906Y-124376319D01*
X163866586Y-123683369D01*
X163336879Y-123152738D01*
X162644431Y-122865208D01*
X161894659Y-122864554D01*
X161201709Y-123150874D01*
X160671078Y-123680581D01*
X160383548Y-124373029D01*
X160382894Y-125122801D01*
X147972454Y-125122801D01*
X147973106Y-124376319D01*
X147686786Y-123683369D01*
X147157079Y-123152738D01*
X146464631Y-122865208D01*
X145714859Y-122864554D01*
X145021909Y-123150874D01*
X144491278Y-123680581D01*
X144203748Y-124373029D01*
X144203094Y-125122801D01*
X106807000Y-125122801D01*
X106807000Y-120205089D01*
X143024537Y-120205089D01*
X143153745Y-120497859D01*
X143853903Y-120766071D01*
X144603404Y-120745928D01*
X145202295Y-120497859D01*
X145331503Y-120205089D01*
X144178020Y-119051605D01*
X143024537Y-120205089D01*
X106807000Y-120205089D01*
X106807000Y-118547883D01*
X142283949Y-118547883D01*
X142304092Y-119297384D01*
X142552161Y-119896275D01*
X142844931Y-120025483D01*
X143998415Y-118872000D01*
X144357625Y-118872000D01*
X145511109Y-120025483D01*
X145803879Y-119896275D01*
X146015408Y-119344085D01*
X151793797Y-119344085D01*
X152155943Y-120220544D01*
X152825929Y-120891700D01*
X153701755Y-121255375D01*
X154650085Y-121256203D01*
X155526544Y-120894057D01*
X156197700Y-120224071D01*
X156561375Y-119348245D01*
X156562203Y-118399915D01*
X156200057Y-117523456D01*
X155530071Y-116852300D01*
X154654245Y-116488625D01*
X153705915Y-116487797D01*
X152829456Y-116849943D01*
X152158300Y-117519929D01*
X151794625Y-118395755D01*
X151793797Y-119344085D01*
X146015408Y-119344085D01*
X146072091Y-119196117D01*
X146051948Y-118446616D01*
X145803879Y-117847725D01*
X145511109Y-117718517D01*
X144357625Y-118872000D01*
X143998415Y-118872000D01*
X142844931Y-117718517D01*
X142552161Y-117847725D01*
X142283949Y-118547883D01*
X106807000Y-118547883D01*
X106807000Y-117538911D01*
X143024537Y-117538911D01*
X144178020Y-118692395D01*
X145331503Y-117538911D01*
X145202295Y-117246141D01*
X144502137Y-116977929D01*
X143752636Y-116998072D01*
X143153745Y-117246141D01*
X143024537Y-117538911D01*
X106807000Y-117538911D01*
X106807000Y-115989187D01*
X108474752Y-115989187D01*
X108692757Y-116516800D01*
X109096077Y-116920824D01*
X109623309Y-117139750D01*
X110194187Y-117140248D01*
X110721800Y-116922243D01*
X111125824Y-116518923D01*
X111344750Y-115991691D01*
X111344752Y-115989187D01*
X115474752Y-115989187D01*
X115692757Y-116516800D01*
X116096077Y-116920824D01*
X116623309Y-117139750D01*
X117194187Y-117140248D01*
X117721800Y-116922243D01*
X118125824Y-116518923D01*
X118344750Y-115991691D01*
X118344880Y-115842000D01*
X194932000Y-115842000D01*
X194932000Y-116967000D01*
X195556950Y-116967000D01*
X195556950Y-117221000D01*
X194932000Y-117221000D01*
X194932000Y-118346000D01*
X195114573Y-119009856D01*
X195537295Y-119553311D01*
X196135810Y-119893629D01*
X196291957Y-119932933D01*
X196565000Y-119815206D01*
X196565000Y-119229050D01*
X196819000Y-119229050D01*
X196819000Y-119815206D01*
X197092043Y-119932933D01*
X197248190Y-119893629D01*
X197846705Y-119553311D01*
X198269427Y-119009856D01*
X198452000Y-118346000D01*
X198452000Y-117221000D01*
X197827050Y-117221000D01*
X197827050Y-116967000D01*
X198452000Y-116967000D01*
X198452000Y-115842000D01*
X198269427Y-115178144D01*
X197846705Y-114634689D01*
X197248190Y-114294371D01*
X197092043Y-114255067D01*
X196819000Y-114372794D01*
X196819000Y-114958950D01*
X196565000Y-114958950D01*
X196565000Y-114372794D01*
X196291957Y-114255067D01*
X196135810Y-114294371D01*
X195537295Y-114634689D01*
X195114573Y-115178144D01*
X194932000Y-115842000D01*
X118344880Y-115842000D01*
X118345248Y-115420813D01*
X118127243Y-114893200D01*
X117723923Y-114489176D01*
X117196691Y-114270250D01*
X116625813Y-114269752D01*
X116098200Y-114487757D01*
X115694176Y-114891077D01*
X115475250Y-115418309D01*
X115474752Y-115989187D01*
X111344752Y-115989187D01*
X111345248Y-115420813D01*
X111127243Y-114893200D01*
X110723923Y-114489176D01*
X110196691Y-114270250D01*
X109625813Y-114269752D01*
X109098200Y-114487757D01*
X108694176Y-114891077D01*
X108475250Y-115418309D01*
X108474752Y-115989187D01*
X106807000Y-115989187D01*
X106807000Y-108112020D01*
X143007825Y-108112020D01*
X143158000Y-108475472D01*
X143158000Y-110236000D01*
X143223464Y-110565108D01*
X143292811Y-110668893D01*
X143409888Y-110844112D01*
X143774070Y-111208294D01*
X143923264Y-111569372D01*
X144207134Y-111853737D01*
X144474893Y-111964920D01*
X144203748Y-112617909D01*
X144203094Y-113367681D01*
X144489414Y-114060631D01*
X145019121Y-114591262D01*
X145711569Y-114878792D01*
X146461341Y-114879446D01*
X147154291Y-114593126D01*
X147684922Y-114063419D01*
X147972452Y-113370971D01*
X147972454Y-113367681D01*
X160382894Y-113367681D01*
X160669214Y-114060631D01*
X161198921Y-114591262D01*
X161891369Y-114878792D01*
X162641141Y-114879446D01*
X163334091Y-114593126D01*
X163864722Y-114063419D01*
X164152252Y-113370971D01*
X164152906Y-112621199D01*
X163866586Y-111928249D01*
X163336879Y-111397618D01*
X162644431Y-111110088D01*
X161894659Y-111109434D01*
X161201709Y-111395754D01*
X160671078Y-111925461D01*
X160383548Y-112617909D01*
X160382894Y-113367681D01*
X147972454Y-113367681D01*
X147973106Y-112621199D01*
X147686786Y-111928249D01*
X147157079Y-111397618D01*
X146464631Y-111110088D01*
X145789903Y-111109499D01*
X145790175Y-110797980D01*
X145636736Y-110426628D01*
X145352866Y-110142263D01*
X144989678Y-109991454D01*
X144878000Y-109879776D01*
X144878000Y-109735481D01*
X149206894Y-109735481D01*
X149493214Y-110428431D01*
X150022921Y-110959062D01*
X150715369Y-111246592D01*
X151465141Y-111247246D01*
X152158091Y-110960926D01*
X152688722Y-110431219D01*
X152976252Y-109738771D01*
X152976254Y-109735481D01*
X155379094Y-109735481D01*
X155665414Y-110428431D01*
X156195121Y-110959062D01*
X156887569Y-111246592D01*
X157637341Y-111247246D01*
X158330291Y-110960926D01*
X158860922Y-110431219D01*
X159148452Y-109738771D01*
X159149106Y-108988999D01*
X158862786Y-108296049D01*
X158333079Y-107765418D01*
X157640631Y-107477888D01*
X156890859Y-107477234D01*
X156197909Y-107763554D01*
X155667278Y-108293261D01*
X155379748Y-108985709D01*
X155379094Y-109735481D01*
X152976254Y-109735481D01*
X152976906Y-108988999D01*
X152690586Y-108296049D01*
X152160879Y-107765418D01*
X151468431Y-107477888D01*
X150718659Y-107477234D01*
X150025709Y-107763554D01*
X149495078Y-108293261D01*
X149207548Y-108985709D01*
X149206894Y-109735481D01*
X144878000Y-109735481D01*
X144878000Y-108474600D01*
X145027824Y-108113783D01*
X145028175Y-107711980D01*
X144874736Y-107340628D01*
X144590866Y-107056263D01*
X144219783Y-106902176D01*
X143817980Y-106901825D01*
X143446628Y-107055264D01*
X143162263Y-107339134D01*
X143008176Y-107710217D01*
X143007825Y-108112020D01*
X106807000Y-108112020D01*
X106807000Y-104670661D01*
X132460758Y-104670661D01*
X132672990Y-105184303D01*
X133065630Y-105577629D01*
X133578900Y-105790757D01*
X134134661Y-105791242D01*
X134648303Y-105579010D01*
X135041629Y-105186370D01*
X135254757Y-104673100D01*
X135254759Y-104670661D01*
X137540758Y-104670661D01*
X137752990Y-105184303D01*
X138145630Y-105577629D01*
X138658900Y-105790757D01*
X139214661Y-105791242D01*
X139728303Y-105579010D01*
X140121629Y-105186370D01*
X140334757Y-104673100D01*
X140334838Y-104579167D01*
X166958838Y-104579167D01*
X167100883Y-104922943D01*
X167363673Y-105186192D01*
X167707201Y-105328838D01*
X168079167Y-105329162D01*
X168422943Y-105187117D01*
X168686192Y-104924327D01*
X168761672Y-104742552D01*
X170028224Y-103476000D01*
X172974000Y-103476000D01*
X173303108Y-103410536D01*
X173582112Y-103224112D01*
X174084585Y-102721639D01*
X174264943Y-102647117D01*
X174528192Y-102384327D01*
X174670838Y-102040799D01*
X174671162Y-101668833D01*
X174529117Y-101325057D01*
X174266327Y-101061808D01*
X173922799Y-100919162D01*
X173550833Y-100918838D01*
X173207057Y-101060883D01*
X172943808Y-101323673D01*
X172868328Y-101505448D01*
X172617776Y-101756000D01*
X169672000Y-101756000D01*
X169342892Y-101821464D01*
X169144370Y-101954112D01*
X169063888Y-102007888D01*
X167545415Y-103526361D01*
X167365057Y-103600883D01*
X167101808Y-103863673D01*
X166959162Y-104207201D01*
X166958838Y-104579167D01*
X140334838Y-104579167D01*
X140335242Y-104117339D01*
X140123010Y-103603697D01*
X139730370Y-103210371D01*
X139392367Y-103070020D01*
X143515825Y-103070020D01*
X143669264Y-103441372D01*
X143953134Y-103725737D01*
X144324217Y-103879824D01*
X144726020Y-103880175D01*
X145097372Y-103726736D01*
X145381737Y-103442866D01*
X145535824Y-103071783D01*
X145535986Y-102886218D01*
X145773298Y-102984759D01*
X146324285Y-102985240D01*
X146833515Y-102774831D01*
X147223461Y-102385564D01*
X147434759Y-101876702D01*
X147435240Y-101325715D01*
X147224831Y-100816485D01*
X146835564Y-100426539D01*
X146326702Y-100215241D01*
X145775715Y-100214760D01*
X145386000Y-100375787D01*
X145386000Y-100178224D01*
X145811057Y-99753167D01*
X148162838Y-99753167D01*
X148304883Y-100096943D01*
X148567673Y-100360192D01*
X148749448Y-100435672D01*
X150008361Y-101694585D01*
X150082883Y-101874943D01*
X150345673Y-102138192D01*
X150689201Y-102280838D01*
X151061167Y-102281162D01*
X151404943Y-102139117D01*
X151668192Y-101876327D01*
X151810838Y-101532799D01*
X151811162Y-101160833D01*
X151669117Y-100817057D01*
X151406327Y-100553808D01*
X151224552Y-100478328D01*
X149965639Y-99219415D01*
X149891117Y-99039057D01*
X149628327Y-98775808D01*
X149284799Y-98633162D01*
X148912833Y-98632838D01*
X148569057Y-98774883D01*
X148305808Y-99037673D01*
X148163162Y-99381201D01*
X148162838Y-99753167D01*
X145811057Y-99753167D01*
X146514294Y-99049930D01*
X146875372Y-98900736D01*
X147159737Y-98616866D01*
X147313824Y-98245783D01*
X147314175Y-97843980D01*
X147160736Y-97472628D01*
X146876866Y-97188263D01*
X146505783Y-97034176D01*
X146103980Y-97033825D01*
X145732628Y-97187264D01*
X145448263Y-97471134D01*
X145297454Y-97834322D01*
X143917888Y-99213888D01*
X143731464Y-99492892D01*
X143666000Y-99822000D01*
X143666000Y-102307400D01*
X143516176Y-102668217D01*
X143515825Y-103070020D01*
X139392367Y-103070020D01*
X139217100Y-102997243D01*
X138661339Y-102996758D01*
X138147697Y-103208990D01*
X137754371Y-103601630D01*
X137541243Y-104114900D01*
X137540758Y-104670661D01*
X135254759Y-104670661D01*
X135255242Y-104117339D01*
X135043010Y-103603697D01*
X134650370Y-103210371D01*
X134137100Y-102997243D01*
X133581339Y-102996758D01*
X133067697Y-103208990D01*
X132674371Y-103601630D01*
X132461243Y-104114900D01*
X132460758Y-104670661D01*
X106807000Y-104670661D01*
X106807000Y-102130661D01*
X135000758Y-102130661D01*
X135212990Y-102644303D01*
X135605630Y-103037629D01*
X136118900Y-103250757D01*
X136674661Y-103251242D01*
X137188303Y-103039010D01*
X137581629Y-102646370D01*
X137794757Y-102133100D01*
X137795242Y-101577339D01*
X137583010Y-101063697D01*
X137190370Y-100670371D01*
X136677100Y-100457243D01*
X136121339Y-100456758D01*
X135607697Y-100668990D01*
X135214371Y-101061630D01*
X135001243Y-101574900D01*
X135000758Y-102130661D01*
X106807000Y-102130661D01*
X106807000Y-99590661D01*
X132460758Y-99590661D01*
X132672990Y-100104303D01*
X133065630Y-100497629D01*
X133578900Y-100710757D01*
X134134661Y-100711242D01*
X134648303Y-100499010D01*
X135041629Y-100106370D01*
X135254757Y-99593100D01*
X135254759Y-99590661D01*
X137540758Y-99590661D01*
X137752990Y-100104303D01*
X138145630Y-100497629D01*
X138658900Y-100710757D01*
X139214661Y-100711242D01*
X139728303Y-100499010D01*
X140121629Y-100106370D01*
X140334757Y-99593100D01*
X140335242Y-99037339D01*
X140123010Y-98523697D01*
X139730370Y-98130371D01*
X139217100Y-97917243D01*
X138661339Y-97916758D01*
X138147697Y-98128990D01*
X137754371Y-98521630D01*
X137541243Y-99034900D01*
X137540758Y-99590661D01*
X135254759Y-99590661D01*
X135255242Y-99037339D01*
X135043010Y-98523697D01*
X134650370Y-98130371D01*
X134137100Y-97917243D01*
X133581339Y-97916758D01*
X133067697Y-98128990D01*
X132674371Y-98521630D01*
X132461243Y-99034900D01*
X132460758Y-99590661D01*
X106807000Y-99590661D01*
X106807000Y-96893305D01*
X173454674Y-96893305D01*
X173741043Y-97586372D01*
X174270839Y-98117093D01*
X174963405Y-98404672D01*
X175713305Y-98405326D01*
X176163792Y-98219189D01*
X176103162Y-98365201D01*
X176102838Y-98737167D01*
X176244883Y-99080943D01*
X176507673Y-99344192D01*
X176851201Y-99486838D01*
X177223167Y-99487162D01*
X177405073Y-99412000D01*
X183539776Y-99412000D01*
X184298361Y-100170585D01*
X184372883Y-100350943D01*
X184635673Y-100614192D01*
X184979201Y-100756838D01*
X185351167Y-100757162D01*
X185694943Y-100615117D01*
X185958192Y-100352327D01*
X186100838Y-100008799D01*
X186101162Y-99636833D01*
X185959117Y-99293057D01*
X185696327Y-99029808D01*
X185514552Y-98954328D01*
X184964897Y-98404673D01*
X185713305Y-98405326D01*
X186406372Y-98118957D01*
X186937093Y-97589161D01*
X187224672Y-96896595D01*
X187225326Y-96146695D01*
X186938957Y-95453628D01*
X186409161Y-94922907D01*
X185716595Y-94635328D01*
X184966695Y-94634674D01*
X184273628Y-94921043D01*
X183742907Y-95450839D01*
X183455328Y-96143405D01*
X183454674Y-96893305D01*
X183741043Y-97586372D01*
X183846487Y-97692000D01*
X181834074Y-97692000D01*
X181937093Y-97589161D01*
X182224672Y-96896595D01*
X182225326Y-96146695D01*
X181938957Y-95453628D01*
X181409161Y-94922907D01*
X180716595Y-94635328D01*
X179966695Y-94634674D01*
X179273628Y-94921043D01*
X178742907Y-95450839D01*
X178455328Y-96143405D01*
X178454674Y-96893305D01*
X178741043Y-97586372D01*
X178846487Y-97692000D01*
X177405028Y-97692000D01*
X177224799Y-97617162D01*
X176909318Y-97616887D01*
X176937093Y-97589161D01*
X177224672Y-96896595D01*
X177225326Y-96146695D01*
X176938957Y-95453628D01*
X176409161Y-94922907D01*
X175716595Y-94635328D01*
X174966695Y-94634674D01*
X174273628Y-94921043D01*
X173742907Y-95450839D01*
X173455328Y-96143405D01*
X173454674Y-96893305D01*
X106807000Y-96893305D01*
X106807000Y-93429360D01*
X108922391Y-93429360D01*
X108927670Y-94557181D01*
X109349112Y-95574632D01*
X109740618Y-95819777D01*
X109807049Y-95753346D01*
X109986498Y-95933107D01*
X109920223Y-95999382D01*
X110165368Y-96390888D01*
X111209360Y-96817609D01*
X112337181Y-96812330D01*
X113354632Y-96390888D01*
X113599777Y-95999382D01*
X113533346Y-95932951D01*
X113713107Y-95753502D01*
X113779382Y-95819777D01*
X114170888Y-95574632D01*
X114597609Y-94530640D01*
X114592455Y-93429360D01*
X192742391Y-93429360D01*
X192747670Y-94557181D01*
X193169112Y-95574632D01*
X193560618Y-95819777D01*
X193627049Y-95753346D01*
X193806498Y-95933107D01*
X193740223Y-95999382D01*
X193985368Y-96390888D01*
X195029360Y-96817609D01*
X196157181Y-96812330D01*
X197174632Y-96390888D01*
X197419777Y-95999382D01*
X197353346Y-95932951D01*
X197533107Y-95753502D01*
X197599382Y-95819777D01*
X197990888Y-95574632D01*
X198417609Y-94530640D01*
X198412330Y-93402819D01*
X197990888Y-92385368D01*
X197599382Y-92140223D01*
X197532951Y-92206654D01*
X197353502Y-92026893D01*
X197419777Y-91960618D01*
X197174632Y-91569112D01*
X196130640Y-91142391D01*
X195002819Y-91147670D01*
X193985368Y-91569112D01*
X193740223Y-91960618D01*
X193806654Y-92027049D01*
X193626893Y-92206498D01*
X193560618Y-92140223D01*
X193169112Y-92385368D01*
X192742391Y-93429360D01*
X114592455Y-93429360D01*
X114592330Y-93402819D01*
X114170888Y-92385368D01*
X113779382Y-92140223D01*
X113712951Y-92206654D01*
X113533502Y-92026893D01*
X113599777Y-91960618D01*
X113354632Y-91569112D01*
X112310640Y-91142391D01*
X111182819Y-91147670D01*
X110165368Y-91569112D01*
X109920223Y-91960618D01*
X109986654Y-92027049D01*
X109806893Y-92206498D01*
X109740618Y-92140223D01*
X109349112Y-92385368D01*
X108922391Y-93429360D01*
X106807000Y-93429360D01*
X106807000Y-90932000D01*
X203708000Y-90932000D01*
X203708000Y-114237943D01*
G36*
X112319950Y-93599655D02*
X111939605Y-93980000D01*
X112320106Y-94360501D01*
X112140345Y-94539950D01*
X111760000Y-94159605D01*
X111379499Y-94540106D01*
X111200050Y-94360345D01*
X111580395Y-93980000D01*
X111199894Y-93599499D01*
X111379655Y-93420050D01*
X111760000Y-93800395D01*
X112140501Y-93419894D01*
X112319950Y-93599655D01*
X112319950Y-93599655D01*
G37*
X112319950Y-93599655D02*
X111939605Y-93980000D01*
X112320106Y-94360501D01*
X112140345Y-94539950D01*
X111760000Y-94159605D01*
X111379499Y-94540106D01*
X111200050Y-94360345D01*
X111580395Y-93980000D01*
X111199894Y-93599499D01*
X111379655Y-93420050D01*
X111760000Y-93800395D01*
X112140501Y-93419894D01*
X112319950Y-93599655D01*
G36*
X196139950Y-93599655D02*
X195759605Y-93980000D01*
X196140106Y-94360501D01*
X195960345Y-94539950D01*
X195580000Y-94159605D01*
X195199499Y-94540106D01*
X195020050Y-94360345D01*
X195400395Y-93980000D01*
X195019894Y-93599499D01*
X195199655Y-93420050D01*
X195580000Y-93800395D01*
X195960501Y-93419894D01*
X196139950Y-93599655D01*
X196139950Y-93599655D01*
G37*
X196139950Y-93599655D02*
X195759605Y-93980000D01*
X196140106Y-94360501D01*
X195960345Y-94539950D01*
X195580000Y-94159605D01*
X195199499Y-94540106D01*
X195020050Y-94360345D01*
X195400395Y-93980000D01*
X195019894Y-93599499D01*
X195199655Y-93420050D01*
X195580000Y-93800395D01*
X195960501Y-93419894D01*
X196139950Y-93599655D01*
G36*
X112319950Y-144399655D02*
X111939605Y-144780000D01*
X112320106Y-145160501D01*
X112140345Y-145339950D01*
X111760000Y-144959605D01*
X111379499Y-145340106D01*
X111200050Y-145160345D01*
X111580395Y-144780000D01*
X111199894Y-144399499D01*
X111379655Y-144220050D01*
X111760000Y-144600395D01*
X112140501Y-144219894D01*
X112319950Y-144399655D01*
X112319950Y-144399655D01*
G37*
X112319950Y-144399655D02*
X111939605Y-144780000D01*
X112320106Y-145160501D01*
X112140345Y-145339950D01*
X111760000Y-144959605D01*
X111379499Y-145340106D01*
X111200050Y-145160345D01*
X111580395Y-144780000D01*
X111199894Y-144399499D01*
X111379655Y-144220050D01*
X111760000Y-144600395D01*
X112140501Y-144219894D01*
X112319950Y-144399655D01*
G36*
X196139950Y-144399655D02*
X195759605Y-144780000D01*
X196140106Y-145160501D01*
X195960345Y-145339950D01*
X195580000Y-144959605D01*
X195199499Y-145340106D01*
X195020050Y-145160345D01*
X195400395Y-144780000D01*
X195019894Y-144399499D01*
X195199655Y-144220050D01*
X195580000Y-144600395D01*
X195960501Y-144219894D01*
X196139950Y-144399655D01*
X196139950Y-144399655D01*
G37*
X196139950Y-144399655D02*
X195759605Y-144780000D01*
X196140106Y-145160501D01*
X195960345Y-145339950D01*
X195580000Y-144959605D01*
X195199499Y-145340106D01*
X195020050Y-145160345D01*
X195400395Y-144780000D01*
X195019894Y-144399499D01*
X195199655Y-144220050D01*
X195580000Y-144600395D01*
X195960501Y-144219894D01*
X196139950Y-144399655D01*
M02*
